<svg xmlns="http://www.w3.org/2000/svg" xmlns:xlink="http://www.w3.org/1999/xlink" width="268" zoomAndPan="magnify" viewBox="0 0 200.87999 48" height="64" preserveAspectRatio="xMidYMid meet" version="1.0"><defs><g/></defs><g fill="#007a55" fill-opacity="1"><g transform="translate(20.199938, 32.326531)"><g><path d="M 7.578125 0.21875 C 6.316406 0.21875 5.070312 0.0507812 3.84375 -0.28125 C 2.625 -0.613281 1.632812 -1.0625 0.875 -1.625 L 2.25 -4.75 C 3.070312 -4.226562 3.941406 -3.832031 4.859375 -3.5625 C 5.773438 -3.289062 6.695312 -3.15625 7.625 -3.15625 C 8.5625 -3.15625 9.28125 -3.28125 9.78125 -3.53125 C 10.28125 -3.789062 10.53125 -4.15625 10.53125 -4.625 C 10.53125 -5.050781 10.300781 -5.398438 9.84375 -5.671875 C 9.394531 -5.953125 8.546875 -6.222656 7.296875 -6.484375 C 5.710938 -6.796875 4.476562 -7.179688 3.59375 -7.640625 C 2.71875 -8.109375 2.101562 -8.65625 1.75 -9.28125 C 1.394531 -9.914062 1.21875 -10.675781 1.21875 -11.5625 C 1.21875 -12.582031 1.507812 -13.503906 2.09375 -14.328125 C 2.675781 -15.148438 3.488281 -15.789062 4.53125 -16.25 C 5.582031 -16.71875 6.785156 -16.953125 8.140625 -16.953125 C 9.347656 -16.953125 10.519531 -16.78125 11.65625 -16.4375 C 12.789062 -16.101562 13.679688 -15.664062 14.328125 -15.125 L 12.953125 -12 C 12.222656 -12.507812 11.445312 -12.898438 10.625 -13.171875 C 9.8125 -13.453125 9 -13.59375 8.1875 -13.59375 C 7.382812 -13.59375 6.738281 -13.4375 6.25 -13.125 C 5.769531 -12.820312 5.53125 -12.414062 5.53125 -11.90625 C 5.53125 -11.613281 5.613281 -11.375 5.78125 -11.1875 C 5.957031 -11 6.28125 -10.816406 6.75 -10.640625 C 7.21875 -10.460938 7.921875 -10.269531 8.859375 -10.0625 C 10.378906 -9.738281 11.570312 -9.34375 12.4375 -8.875 C 13.3125 -8.414062 13.929688 -7.875 14.296875 -7.25 C 14.660156 -6.632812 14.84375 -5.894531 14.84375 -5.03125 C 14.84375 -3.40625 14.207031 -2.125 12.9375 -1.1875 C 11.664062 -0.25 9.878906 0.21875 7.578125 0.21875 Z M 7.578125 0.21875 "/></g></g></g><g fill="#007a55" fill-opacity="1"><g transform="translate(37.879641, 32.326531)"><g><path d="M 9.484375 0.21875 C 7.765625 0.21875 6.269531 -0.128906 5 -0.828125 C 3.738281 -1.523438 2.765625 -2.523438 2.078125 -3.828125 C 1.398438 -5.128906 1.0625 -6.648438 1.0625 -8.390625 C 1.0625 -10.128906 1.40625 -11.640625 2.09375 -12.921875 C 2.78125 -14.210938 3.753906 -15.207031 5.015625 -15.90625 C 6.273438 -16.601562 7.765625 -16.953125 9.484375 -16.953125 C 11.191406 -16.953125 12.675781 -16.601562 13.9375 -15.90625 C 15.195312 -15.207031 16.160156 -14.210938 16.828125 -12.921875 C 17.503906 -11.640625 17.84375 -10.128906 17.84375 -8.390625 C 17.84375 -6.648438 17.503906 -5.128906 16.828125 -3.828125 C 16.160156 -2.523438 15.195312 -1.523438 13.9375 -0.828125 C 12.675781 -0.128906 11.191406 0.21875 9.484375 0.21875 Z M 9.484375 -3.15625 C 10.734375 -3.15625 11.710938 -3.597656 12.421875 -4.484375 C 13.140625 -5.378906 13.5 -6.679688 13.5 -8.390625 C 13.5 -10.085938 13.140625 -11.378906 12.421875 -12.265625 C 11.710938 -13.148438 10.734375 -13.59375 9.484375 -13.59375 C 8.222656 -13.59375 7.238281 -13.148438 6.53125 -12.265625 C 5.832031 -11.390625 5.484375 -10.097656 5.484375 -8.390625 C 5.484375 -6.671875 5.832031 -5.367188 6.53125 -4.484375 C 7.238281 -3.597656 8.222656 -3.15625 9.484375 -3.15625 Z M 9.484375 -3.15625 "/></g></g></g><g fill="#007a55" fill-opacity="1"><g transform="translate(58.686209, 32.326531)"><g><path d="M 1.5 0 L 1.5 -16.75 L 5.921875 -16.75 L 5.921875 -3.578125 L 13 -3.578125 L 13 0 Z M 1.5 0 "/></g></g></g><g fill="#00bc7d" fill-opacity="1"><g transform="translate(74.188456, 32.326531)"><g><path d="M 1.5 0 L 1.5 -16.75 L 13.453125 -16.75 L 13.453125 -13.359375 L 5.8125 -13.359375 L 5.8125 -10.203125 L 12.953125 -10.203125 L 12.953125 -6.8125 L 5.8125 -6.8125 L 5.8125 -3.390625 L 13.453125 -3.390625 L 13.453125 0 Z M 1.5 0 "/></g></g></g><g fill="#00bc7d" fill-opacity="1"><g transform="translate(90.269458, 32.326531)"><g><path d="M 15.03125 -16.75 L 18.453125 -16.75 L 18.453125 0 L 14.609375 0 L 14.578125 -7.671875 L 11.40625 0 L 8.609375 0 L 5.40625 -7.578125 L 5.40625 0 L 1.578125 0 L 1.578125 -16.75 L 5.03125 -16.75 L 10.046875 -5.3125 Z M 15.03125 -16.75 "/></g></g></g><g fill="#00bc7d" fill-opacity="1"><g transform="translate(112.181005, 32.326531)"><g><path d="M 1.5 -16.75 L 9.484375 -16.75 C 11.390625 -16.75 12.867188 -16.285156 13.921875 -15.359375 C 14.972656 -14.441406 15.5 -13.203125 15.5 -11.640625 C 15.5 -10.085938 14.960938 -8.847656 13.890625 -7.921875 C 12.828125 -6.992188 11.359375 -6.53125 9.484375 -6.53125 L 5.921875 -6.53125 L 5.921875 0 L 1.5 0 Z M 8.890625 -9.828125 C 10.546875 -9.828125 11.375 -10.414062 11.375 -11.59375 C 11.375 -12.1875 11.175781 -12.632812 10.78125 -12.9375 C 10.382812 -13.25 9.753906 -13.40625 8.890625 -13.40625 L 5.921875 -13.40625 L 5.921875 -9.828125 Z M 8.890625 -9.828125 "/></g></g></g><g fill="#00bc7d" fill-opacity="1"><g transform="translate(130.166341, 32.326531)"><g><path d="M 1.5 0 L 1.5 -16.75 L 5.921875 -16.75 L 5.921875 -3.578125 L 13 -3.578125 L 13 0 Z M 1.5 0 "/></g></g></g><g fill="#00bc7d" fill-opacity="1"><g transform="translate(145.659586, 32.326531)"><g><path d="M 1.5 0 L 1.5 -16.75 L 13.453125 -16.75 L 13.453125 -13.359375 L 5.8125 -13.359375 L 5.8125 -10.203125 L 12.953125 -10.203125 L 12.953125 -6.8125 L 5.8125 -6.8125 L 5.8125 -3.390625 L 13.453125 -3.390625 L 13.453125 0 Z M 1.5 0 "/></g></g></g><g fill="#00bc7d" fill-opacity="1"><g transform="translate(161.740588, 32.326531)"><g><path d="M 9.484375 0.21875 C 7.765625 0.21875 6.269531 -0.128906 5 -0.828125 C 3.738281 -1.523438 2.765625 -2.523438 2.078125 -3.828125 C 1.398438 -5.128906 1.0625 -6.648438 1.0625 -8.390625 C 1.0625 -10.128906 1.40625 -11.640625 2.09375 -12.921875 C 2.78125 -14.210938 3.753906 -15.207031 5.015625 -15.90625 C 6.273438 -16.601562 7.765625 -16.953125 9.484375 -16.953125 C 11.191406 -16.953125 12.675781 -16.601562 13.9375 -15.90625 C 15.195312 -15.207031 16.160156 -14.210938 16.828125 -12.921875 C 17.503906 -11.640625 17.84375 -10.128906 17.84375 -8.390625 C 17.84375 -6.648438 17.503906 -5.128906 16.828125 -3.828125 C 16.160156 -2.523438 15.195312 -1.523438 13.9375 -0.828125 C 12.675781 -0.128906 11.191406 0.21875 9.484375 0.21875 Z M 9.484375 -3.15625 C 10.734375 -3.15625 11.710938 -3.597656 12.421875 -4.484375 C 13.140625 -5.378906 13.5 -6.679688 13.5 -8.390625 C 13.5 -10.085938 13.140625 -11.378906 12.421875 -12.265625 C 11.710938 -13.148438 10.734375 -13.59375 9.484375 -13.59375 C 8.222656 -13.59375 7.238281 -13.148438 6.53125 -12.265625 C 5.832031 -11.390625 5.484375 -10.097656 5.484375 -8.390625 C 5.484375 -6.671875 5.832031 -5.367188 6.53125 -4.484375 C 7.238281 -3.597656 8.222656 -3.15625 9.484375 -3.15625 Z M 9.484375 -3.15625 "/></g></g></g></svg>