<svg xmlns="http://www.w3.org/2000/svg" xmlns:xlink="http://www.w3.org/1999/xlink" width="268" zoomAndPan="magnify" viewBox="0 0 200.87999 48" height="64" preserveAspectRatio="xMidYMid meet" version="1.0"><defs><g/><clipPath id="a55bf562dc"><path d="M 10.570312 7 L 43.796875 7 L 43.796875 40.121094 L 10.570312 40.121094 Z M 10.570312 7 " clip-rule="nonzero"/></clipPath><clipPath id="3b2c14dbfe"><path d="M 29.261719 7.867188 L 42.824219 21.433594 C 43.375 21.984375 43.683594 22.730469 43.683594 23.511719 C 43.683594 24.289062 43.375 25.035156 42.824219 25.589844 L 29.261719 39.152344 C 28.710938 39.703125 27.960938 40.011719 27.183594 40.011719 C 26.402344 40.011719 25.65625 39.703125 25.105469 39.152344 L 11.539062 25.589844 C 10.988281 25.035156 10.679688 24.289062 10.679688 23.511719 C 10.679688 22.730469 10.988281 21.984375 11.539062 21.433594 L 25.105469 7.867188 C 25.65625 7.316406 26.402344 7.007812 27.183594 7.007812 C 27.960938 7.007812 28.710938 7.316406 29.261719 7.867188 Z M 29.261719 7.867188 " clip-rule="nonzero"/></clipPath><clipPath id="d2cce452a0"><path d="M 0.570312 0 L 33.796875 0 L 33.796875 33.121094 L 0.570312 33.121094 Z M 0.570312 0 " clip-rule="nonzero"/></clipPath><clipPath id="ce2ab256fe"><path d="M 19.261719 0.867188 L 32.824219 14.433594 C 33.375 14.984375 33.683594 15.730469 33.683594 16.511719 C 33.683594 17.289062 33.375 18.035156 32.824219 18.589844 L 19.261719 32.152344 C 18.710938 32.703125 17.960938 33.011719 17.183594 33.011719 C 16.402344 33.011719 15.65625 32.703125 15.105469 32.152344 L 1.539062 18.589844 C 0.988281 18.035156 0.679688 17.289062 0.679688 16.511719 C 0.679688 15.730469 0.988281 14.984375 1.539062 14.433594 L 15.105469 0.867188 C 15.65625 0.316406 16.402344 0.0078125 17.183594 0.0078125 C 17.960938 0.0078125 18.710938 0.316406 19.261719 0.867188 Z M 19.261719 0.867188 " clip-rule="nonzero"/></clipPath><clipPath id="8f10b60cf6"><rect x="0" width="34" y="0" height="34"/></clipPath><clipPath id="e5d69f1671"><path d="M 13.527344 9.855469 L 40.839844 9.855469 L 40.839844 37.167969 L 13.527344 37.167969 Z M 13.527344 9.855469 " clip-rule="nonzero"/></clipPath><clipPath id="80c72c8238"><path d="M 29.261719 10.773438 L 39.917969 21.433594 C 41.066406 22.578125 41.066406 24.441406 39.917969 25.589844 L 29.261719 36.246094 C 28.113281 37.394531 26.253906 37.394531 25.105469 36.246094 L 14.445312 25.589844 C 13.300781 24.441406 13.300781 22.578125 14.445312 21.433594 L 25.105469 10.773438 C 26.253906 9.628906 28.113281 9.628906 29.261719 10.773438 Z M 29.261719 10.773438 " clip-rule="nonzero"/></clipPath><clipPath id="550161be5a"><path d="M 0.527344 0.855469 L 27.839844 0.855469 L 27.839844 28.167969 L 0.527344 28.167969 Z M 0.527344 0.855469 " clip-rule="nonzero"/></clipPath><clipPath id="360d754fd5"><path d="M 16.261719 1.773438 L 26.917969 12.433594 C 28.066406 13.578125 28.066406 15.441406 26.917969 16.589844 L 16.261719 27.246094 C 15.113281 28.394531 13.253906 28.394531 12.105469 27.246094 L 1.445312 16.589844 C 0.300781 15.441406 0.300781 13.578125 1.445312 12.433594 L 12.105469 1.773438 C 13.253906 0.628906 15.113281 0.628906 16.261719 1.773438 Z M 16.261719 1.773438 " clip-rule="nonzero"/></clipPath><clipPath id="b1a8ca6ede"><rect x="0" width="28" y="0" height="29"/></clipPath><clipPath id="9d11ea7187"><path d="M 46 3 L 198.769531 3 L 198.769531 43 L 46 43 Z M 46 3 " clip-rule="nonzero"/></clipPath><clipPath id="d901b4dbdf"><path d="M 135 14 L 152.769531 14 L 152.769531 31 L 135 31 Z M 135 14 " clip-rule="nonzero"/></clipPath><clipPath id="54484aeeed"><rect x="0" width="153" y="0" height="40"/></clipPath></defs><g clip-path="url(#a55bf562dc)"><g clip-path="url(#3b2c14dbfe)"><g transform="matrix(1, 0, 0, 1, 10, 7)"><g clip-path="url(#8f10b60cf6)"><g clip-path="url(#d2cce452a0)"><g clip-path="url(#ce2ab256fe)"><rect x="-54.193598" width="289.267186" fill="#007a55" height="69.120001" y="-17.56" fill-opacity="1"/></g></g></g></g></g></g><g clip-path="url(#e5d69f1671)"><g clip-path="url(#80c72c8238)"><g transform="matrix(1, 0, 0, 1, 13, 9)"><g clip-path="url(#b1a8ca6ede)"><g clip-path="url(#550161be5a)"><g clip-path="url(#360d754fd5)"><rect x="-57.193598" width="289.267186" fill="#5ee9b5" height="69.120001" y="-19.56" fill-opacity="1"/></g></g></g></g></g></g><g fill="#00bc7d" fill-opacity="1"><g transform="translate(18.601617, 32.693878)"><g><path d="M 8.8125 0.1875 C 7.375 0.1875 6.085938 -0.0390625 4.953125 -0.5 C 3.828125 -0.96875 2.921875 -1.65625 2.234375 -2.5625 C 1.554688 -3.476562 1.203125 -4.578125 1.171875 -5.859375 L 6.25 -5.859375 C 6.320312 -5.128906 6.570312 -4.570312 7 -4.1875 C 7.425781 -3.8125 7.984375 -3.625 8.671875 -3.625 C 9.378906 -3.625 9.9375 -3.785156 10.34375 -4.109375 C 10.75 -4.429688 10.953125 -4.882812 10.953125 -5.46875 C 10.953125 -5.945312 10.789062 -6.34375 10.46875 -6.65625 C 10.144531 -6.976562 9.742188 -7.238281 9.265625 -7.4375 C 8.796875 -7.644531 8.125 -7.878906 7.25 -8.140625 C 5.988281 -8.523438 4.957031 -8.910156 4.15625 -9.296875 C 3.351562 -9.691406 2.660156 -10.269531 2.078125 -11.03125 C 1.503906 -11.800781 1.21875 -12.796875 1.21875 -14.015625 C 1.21875 -15.835938 1.878906 -17.265625 3.203125 -18.296875 C 4.523438 -19.328125 6.242188 -19.84375 8.359375 -19.84375 C 10.515625 -19.84375 12.25 -19.328125 13.5625 -18.296875 C 14.882812 -17.265625 15.59375 -15.832031 15.6875 -14 L 10.53125 -14 C 10.5 -14.625 10.269531 -15.117188 9.84375 -15.484375 C 9.414062 -15.847656 8.863281 -16.03125 8.1875 -16.03125 C 7.613281 -16.03125 7.148438 -15.875 6.796875 -15.5625 C 6.441406 -15.257812 6.265625 -14.820312 6.265625 -14.25 C 6.265625 -13.613281 6.5625 -13.117188 7.15625 -12.765625 C 7.757812 -12.410156 8.691406 -12.03125 9.953125 -11.625 C 11.210938 -11.195312 12.238281 -10.785156 13.03125 -10.390625 C 13.820312 -10.003906 14.503906 -9.4375 15.078125 -8.6875 C 15.648438 -7.945312 15.9375 -6.992188 15.9375 -5.828125 C 15.9375 -4.710938 15.65625 -3.695312 15.09375 -2.78125 C 14.53125 -1.875 13.707031 -1.148438 12.625 -0.609375 C 11.550781 -0.078125 10.28125 0.1875 8.8125 0.1875 Z M 8.8125 0.1875 "/></g></g></g><g clip-path="url(#9d11ea7187)"><g transform="matrix(1, 0, 0, 1, 46, 3)"><g clip-path="url(#54484aeeed)"><g fill="#007a55" fill-opacity="1"><g transform="translate(0.933478, 29.971832)"><g><path d="M 8.8125 0.1875 C 7.382812 0.1875 6.101562 -0.0390625 4.96875 -0.5 C 3.832031 -0.96875 2.925781 -1.65625 2.25 -2.5625 C 1.570312 -3.476562 1.210938 -4.578125 1.171875 -5.859375 L 6.25 -5.859375 C 6.320312 -5.128906 6.570312 -4.570312 7 -4.1875 C 7.425781 -3.8125 7.984375 -3.625 8.671875 -3.625 C 9.378906 -3.625 9.9375 -3.785156 10.34375 -4.109375 C 10.757812 -4.441406 10.96875 -4.894531 10.96875 -5.46875 C 10.96875 -5.945312 10.800781 -6.34375 10.46875 -6.65625 C 10.144531 -6.976562 9.742188 -7.238281 9.265625 -7.4375 C 8.796875 -7.644531 8.125 -7.878906 7.25 -8.140625 C 5.988281 -8.535156 4.957031 -8.925781 4.15625 -9.3125 C 3.351562 -9.707031 2.664062 -10.285156 2.09375 -11.046875 C 1.519531 -11.804688 1.234375 -12.800781 1.234375 -14.03125 C 1.234375 -15.851562 1.890625 -17.28125 3.203125 -18.3125 C 4.523438 -19.34375 6.25 -19.859375 8.375 -19.859375 C 10.53125 -19.859375 12.265625 -19.34375 13.578125 -18.3125 C 14.898438 -17.28125 15.609375 -15.84375 15.703125 -14 L 10.546875 -14 C 10.503906 -14.632812 10.269531 -15.128906 9.84375 -15.484375 C 9.414062 -15.847656 8.867188 -16.03125 8.203125 -16.03125 C 7.617188 -16.03125 7.148438 -15.875 6.796875 -15.5625 C 6.453125 -15.257812 6.28125 -14.820312 6.28125 -14.25 C 6.28125 -13.613281 6.578125 -13.117188 7.171875 -12.765625 C 7.765625 -12.421875 8.691406 -12.039062 9.953125 -11.625 C 11.222656 -11.195312 12.25 -10.785156 13.03125 -10.390625 C 13.820312 -10.003906 14.503906 -9.441406 15.078125 -8.703125 C 15.660156 -7.960938 15.953125 -7.003906 15.953125 -5.828125 C 15.953125 -4.710938 15.664062 -3.695312 15.09375 -2.78125 C 14.53125 -1.875 13.707031 -1.148438 12.625 -0.609375 C 11.550781 -0.078125 10.28125 0.1875 8.8125 0.1875 Z M 8.8125 0.1875 "/></g></g></g><g fill="#007a55" fill-opacity="1"><g transform="translate(18.08041, 29.971832)"><g><path d="M 8.8125 0.21875 C 7.289062 0.21875 5.921875 -0.101562 4.703125 -0.75 C 3.484375 -1.40625 2.523438 -2.335938 1.828125 -3.546875 C 1.128906 -4.753906 0.78125 -6.164062 0.78125 -7.78125 C 0.78125 -9.382812 1.132812 -10.789062 1.84375 -12 C 2.550781 -13.21875 3.515625 -14.148438 4.734375 -14.796875 C 5.960938 -15.453125 7.34375 -15.78125 8.875 -15.78125 C 10.394531 -15.78125 11.769531 -15.453125 13 -14.796875 C 14.226562 -14.148438 15.191406 -13.21875 15.890625 -12 C 16.597656 -10.789062 16.953125 -9.382812 16.953125 -7.78125 C 16.953125 -6.1875 16.59375 -4.78125 15.875 -3.5625 C 15.164062 -2.34375 14.191406 -1.40625 12.953125 -0.75 C 11.710938 -0.101562 10.332031 0.21875 8.8125 0.21875 Z M 8.8125 -3.90625 C 9.726562 -3.90625 10.503906 -4.238281 11.140625 -4.90625 C 11.785156 -5.570312 12.109375 -6.53125 12.109375 -7.78125 C 12.109375 -9.03125 11.796875 -9.988281 11.171875 -10.65625 C 10.546875 -11.320312 9.78125 -11.65625 8.875 -11.65625 C 7.9375 -11.65625 7.160156 -11.320312 6.546875 -10.65625 C 5.941406 -10 5.640625 -9.039062 5.640625 -7.78125 C 5.640625 -6.53125 5.941406 -5.570312 6.546875 -4.90625 C 7.148438 -4.238281 7.90625 -3.90625 8.8125 -3.90625 Z M 8.8125 -3.90625 "/></g></g></g><g fill="#007a55" fill-opacity="1"><g transform="translate(35.840735, 29.971832)"><g><path d="M 6.5 -20.640625 L 6.5 0 L 1.734375 0 L 1.734375 -20.640625 Z M 6.5 -20.640625 "/></g></g></g><g fill="#007a55" fill-opacity="1"><g transform="translate(44.065685, 29.971832)"><g><path d="M 16.40625 -8.03125 C 16.40625 -7.582031 16.375 -7.117188 16.3125 -6.640625 L 5.515625 -6.640625 C 5.597656 -5.671875 5.910156 -4.929688 6.453125 -4.421875 C 7.003906 -3.910156 7.679688 -3.65625 8.484375 -3.65625 C 9.671875 -3.65625 10.5 -4.15625 10.96875 -5.15625 L 16.03125 -5.15625 C 15.769531 -4.132812 15.300781 -3.210938 14.625 -2.390625 C 13.945312 -1.578125 13.097656 -0.9375 12.078125 -0.46875 C 11.054688 -0.0078125 9.910156 0.21875 8.640625 0.21875 C 7.117188 0.21875 5.765625 -0.101562 4.578125 -0.75 C 3.390625 -1.40625 2.457031 -2.335938 1.78125 -3.546875 C 1.113281 -4.753906 0.78125 -6.164062 0.78125 -7.78125 C 0.78125 -9.394531 1.109375 -10.804688 1.765625 -12.015625 C 2.429688 -13.222656 3.359375 -14.148438 4.546875 -14.796875 C 5.734375 -15.453125 7.097656 -15.78125 8.640625 -15.78125 C 10.148438 -15.78125 11.488281 -15.460938 12.65625 -14.828125 C 13.832031 -14.203125 14.75 -13.300781 15.40625 -12.125 C 16.070312 -10.957031 16.40625 -9.59375 16.40625 -8.03125 Z M 11.515625 -9.28125 C 11.515625 -10.101562 11.234375 -10.753906 10.671875 -11.234375 C 10.117188 -11.722656 9.425781 -11.96875 8.59375 -11.96875 C 7.789062 -11.96875 7.113281 -11.734375 6.5625 -11.265625 C 6.019531 -10.804688 5.679688 -10.144531 5.546875 -9.28125 Z M 11.515625 -9.28125 "/></g></g></g><g fill="#007a55" fill-opacity="1"><g transform="translate(61.240497, 29.971832)"><g><path d="M 21.59375 -15.734375 C 23.519531 -15.734375 25.054688 -15.144531 26.203125 -13.96875 C 27.347656 -12.800781 27.921875 -11.175781 27.921875 -9.09375 L 27.921875 0 L 23.171875 0 L 23.171875 -8.453125 C 23.171875 -9.453125 22.90625 -10.226562 22.375 -10.78125 C 21.851562 -11.332031 21.125 -11.609375 20.1875 -11.609375 C 19.257812 -11.609375 18.53125 -11.332031 18 -10.78125 C 17.46875 -10.226562 17.203125 -9.453125 17.203125 -8.453125 L 17.203125 0 L 12.46875 0 L 12.46875 -8.453125 C 12.46875 -9.453125 12.203125 -10.226562 11.671875 -10.78125 C 11.140625 -11.332031 10.410156 -11.609375 9.484375 -11.609375 C 8.554688 -11.609375 7.828125 -11.332031 7.296875 -10.78125 C 6.765625 -10.226562 6.5 -9.453125 6.5 -8.453125 L 6.5 0 L 1.734375 0 L 1.734375 -15.5625 L 6.5 -15.5625 L 6.5 -13.609375 C 6.976562 -14.265625 7.609375 -14.78125 8.390625 -15.15625 C 9.171875 -15.539062 10.054688 -15.734375 11.046875 -15.734375 C 12.210938 -15.734375 13.253906 -15.476562 14.171875 -14.96875 C 15.097656 -14.46875 15.820312 -13.753906 16.34375 -12.828125 C 16.882812 -13.679688 17.617188 -14.378906 18.546875 -14.921875 C 19.472656 -15.460938 20.488281 -15.734375 21.59375 -15.734375 Z M 21.59375 -15.734375 "/></g></g></g><g fill="#007a55" fill-opacity="1"><g transform="translate(90.766685, 29.971832)"><g><path d="M 6.5 -13.359375 C 6.96875 -14.085938 7.609375 -14.671875 8.421875 -15.109375 C 9.242188 -15.554688 10.203125 -15.78125 11.296875 -15.78125 C 12.578125 -15.78125 13.738281 -15.453125 14.78125 -14.796875 C 15.820312 -14.148438 16.644531 -13.222656 17.25 -12.015625 C 17.851562 -10.804688 18.15625 -9.40625 18.15625 -7.8125 C 18.15625 -6.207031 17.851562 -4.796875 17.25 -3.578125 C 16.644531 -2.359375 15.820312 -1.421875 14.78125 -0.765625 C 13.738281 -0.109375 12.578125 0.21875 11.296875 0.21875 C 10.210938 0.21875 9.257812 0 8.4375 -0.4375 C 7.613281 -0.882812 6.96875 -1.460938 6.5 -2.171875 L 6.5 7.421875 L 1.734375 7.421875 L 1.734375 -15.5625 L 6.5 -15.5625 Z M 13.296875 -7.8125 C 13.296875 -9 12.96875 -9.929688 12.3125 -10.609375 C 11.65625 -11.285156 10.84375 -11.625 9.875 -11.625 C 8.925781 -11.625 8.117188 -11.28125 7.453125 -10.59375 C 6.796875 -9.90625 6.46875 -8.96875 6.46875 -7.78125 C 6.46875 -6.59375 6.796875 -5.65625 7.453125 -4.96875 C 8.117188 -4.28125 8.925781 -3.9375 9.875 -3.9375 C 10.820312 -3.9375 11.628906 -4.285156 12.296875 -4.984375 C 12.960938 -5.679688 13.296875 -6.625 13.296875 -7.8125 Z M 13.296875 -7.8125 "/></g></g></g><g fill="#007a55" fill-opacity="1"><g transform="translate(109.698014, 29.971832)"><g><path d="M 6.5 -20.640625 L 6.5 0 L 1.734375 0 L 1.734375 -20.640625 Z M 6.5 -20.640625 "/></g></g></g><g fill="#007a55" fill-opacity="1"><g transform="translate(117.922963, 29.971832)"><g><path d="M 16.40625 -8.03125 C 16.40625 -7.582031 16.375 -7.117188 16.3125 -6.640625 L 5.515625 -6.640625 C 5.597656 -5.671875 5.910156 -4.929688 6.453125 -4.421875 C 7.003906 -3.910156 7.679688 -3.65625 8.484375 -3.65625 C 9.671875 -3.65625 10.5 -4.15625 10.96875 -5.15625 L 16.03125 -5.15625 C 15.769531 -4.132812 15.300781 -3.210938 14.625 -2.390625 C 13.945312 -1.578125 13.097656 -0.9375 12.078125 -0.46875 C 11.054688 -0.0078125 9.910156 0.21875 8.640625 0.21875 C 7.117188 0.21875 5.765625 -0.101562 4.578125 -0.75 C 3.390625 -1.40625 2.457031 -2.335938 1.78125 -3.546875 C 1.113281 -4.753906 0.78125 -6.164062 0.78125 -7.78125 C 0.78125 -9.394531 1.109375 -10.804688 1.765625 -12.015625 C 2.429688 -13.222656 3.359375 -14.148438 4.546875 -14.796875 C 5.734375 -15.453125 7.097656 -15.78125 8.640625 -15.78125 C 10.148438 -15.78125 11.488281 -15.460938 12.65625 -14.828125 C 13.832031 -14.203125 14.75 -13.300781 15.40625 -12.125 C 16.070312 -10.957031 16.40625 -9.59375 16.40625 -8.03125 Z M 11.515625 -9.28125 C 11.515625 -10.101562 11.234375 -10.753906 10.671875 -11.234375 C 10.117188 -11.722656 9.425781 -11.96875 8.59375 -11.96875 C 7.789062 -11.96875 7.113281 -11.734375 6.5625 -11.265625 C 6.019531 -10.804688 5.679688 -10.144531 5.546875 -9.28125 Z M 11.515625 -9.28125 "/></g></g></g><g clip-path="url(#d901b4dbdf)"><g fill="#007a55" fill-opacity="1"><g transform="translate(135.097776, 29.971832)"><g><path d="M 8.8125 0.21875 C 7.289062 0.21875 5.921875 -0.101562 4.703125 -0.75 C 3.484375 -1.40625 2.523438 -2.335938 1.828125 -3.546875 C 1.128906 -4.753906 0.78125 -6.164062 0.78125 -7.78125 C 0.78125 -9.382812 1.132812 -10.789062 1.84375 -12 C 2.550781 -13.21875 3.515625 -14.148438 4.734375 -14.796875 C 5.960938 -15.453125 7.34375 -15.78125 8.875 -15.78125 C 10.394531 -15.78125 11.769531 -15.453125 13 -14.796875 C 14.226562 -14.148438 15.191406 -13.21875 15.890625 -12 C 16.597656 -10.789062 16.953125 -9.382812 16.953125 -7.78125 C 16.953125 -6.1875 16.59375 -4.78125 15.875 -3.5625 C 15.164062 -2.34375 14.191406 -1.40625 12.953125 -0.75 C 11.710938 -0.101562 10.332031 0.21875 8.8125 0.21875 Z M 8.8125 -3.90625 C 9.726562 -3.90625 10.503906 -4.238281 11.140625 -4.90625 C 11.785156 -5.570312 12.109375 -6.53125 12.109375 -7.78125 C 12.109375 -9.03125 11.796875 -9.988281 11.171875 -10.65625 C 10.546875 -11.320312 9.78125 -11.65625 8.875 -11.65625 C 7.9375 -11.65625 7.160156 -11.320312 6.546875 -10.65625 C 5.941406 -10 5.640625 -9.039062 5.640625 -7.78125 C 5.640625 -6.53125 5.941406 -5.570312 6.546875 -4.90625 C 7.148438 -4.238281 7.90625 -3.90625 8.8125 -3.90625 Z M 8.8125 -3.90625 "/></g></g></g></g></g></g></g></svg>