<svg xmlns="http://www.w3.org/2000/svg" xmlns:xlink="http://www.w3.org/1999/xlink" width="768" zoomAndPan="magnify" viewBox="0 0 576 576" height="768" preserveAspectRatio="xMidYMid meet" version="1.0"><defs><clipPath id="8781a61fed"><path d="M 26 50 L 542 50 L 542 494 L 26 494 Z M 26 50 " clip-rule="nonzero"/></clipPath><clipPath id="fef96b97a8"><path d="M 92.414062 11.558594 L 576.019531 109.875 L 483.679688 564.082031 L 0.0742188 465.765625 Z M 92.414062 11.558594 " clip-rule="nonzero"/></clipPath><clipPath id="537d94404d"><path d="M 92.414062 11.558594 L 576.019531 109.875 L 483.679688 564.082031 L 0.0742188 465.765625 Z M 92.414062 11.558594 " clip-rule="nonzero"/></clipPath><clipPath id="68461067ab"><path d="M 429 154.972656 L 494.210938 154.972656 L 494.210938 220 L 429 220 Z M 429 154.972656 " clip-rule="nonzero"/></clipPath><clipPath id="0c5a22de5e"><path d="M 136 154.972656 L 154 154.972656 L 154 172 L 136 172 Z M 136 154.972656 " clip-rule="nonzero"/></clipPath><clipPath id="f778335e43"><path d="M 165 154.972656 L 183 154.972656 L 183 172 L 165 172 Z M 165 154.972656 " clip-rule="nonzero"/></clipPath><clipPath id="fcfdb5b8ca"><path d="M 195 154.972656 L 212 154.972656 L 212 172 L 195 172 Z M 195 154.972656 " clip-rule="nonzero"/></clipPath><clipPath id="821b36bddf"><path d="M 115 307 L 156 307 L 156 421.222656 L 115 421.222656 Z M 115 307 " clip-rule="nonzero"/></clipPath><clipPath id="3bb8df6c5e"><path d="M 131 307 L 214 307 L 214 421.222656 L 131 421.222656 Z M 131 307 " clip-rule="nonzero"/></clipPath><clipPath id="92f5d40c32"><path d="M 95 420 L 176 420 L 176 421.222656 L 95 421.222656 Z M 95 420 " clip-rule="nonzero"/></clipPath><clipPath id="4115db5680"><path d="M 438 396 L 483 396 L 483 421.222656 L 438 421.222656 Z M 438 396 " clip-rule="nonzero"/></clipPath><clipPath id="f6225cb5a4"><path d="M 371 406 L 411 406 L 411 421.222656 L 371 421.222656 Z M 371 406 " clip-rule="nonzero"/></clipPath><clipPath id="1967ae0b15"><path d="M 403 420 L 494.210938 420 L 494.210938 421.222656 L 403 421.222656 Z M 403 420 " clip-rule="nonzero"/></clipPath><clipPath id="0d2221f0a1"><path d="M 291 411 L 336 411 L 336 421.222656 L 291 421.222656 Z M 291 411 " clip-rule="nonzero"/></clipPath><clipPath id="0d726b4707"><path d="M 244 371 L 315 371 L 315 421.222656 L 244 421.222656 Z M 244 371 " clip-rule="nonzero"/></clipPath><clipPath id="16f5d21eeb"><path d="M 306 393 L 311 393 L 311 421.222656 L 306 421.222656 Z M 306 393 " clip-rule="nonzero"/></clipPath><clipPath id="c71d06b1cd"><path d="M 235 371 L 307 371 L 307 421.222656 L 235 421.222656 Z M 235 371 " clip-rule="nonzero"/></clipPath></defs><g clip-path="url(#8781a61fed)"><g clip-path="url(#fef96b97a8)"><g clip-path="url(#537d94404d)"><path fill="#5ee9b5" d="M 516.796875 353.835938 C 528.347656 332.417969 533.011719 305.753906 525.167969 282.933594 C 530.539062 282.835938 541.394531 280.15625 541.058594 280.207031 C 535.464844 281.039062 529.859375 281.132812 524.238281 280.488281 C 523.910156 279.636719 523.601562 278.773438 523.230469 277.929688 C 511.328125 250.78125 484.253906 239.15625 460.984375 227.039062 C 454.347656 223.617188 447.914062 219.851562 441.675781 215.742188 C 436.558594 207.394531 431.8125 198.722656 427.265625 189.949219 C 411.890625 160.304688 397.753906 129.351562 375.882812 104.902344 C 371.335938 99.800781 366.492188 94.996094 361.347656 90.492188 C 356.207031 85.992188 350.808594 81.824219 345.148438 77.992188 C 339.488281 74.160156 333.617188 70.691406 327.527344 67.585938 C 321.4375 64.480469 315.179688 61.761719 308.757812 59.433594 C 283.714844 50.449219 256.25 47.445312 230 55.503906 C 223.542969 57.429688 217.40625 60.089844 211.585938 63.484375 C 205.769531 66.878906 200.433594 70.910156 195.578125 75.585938 C 185.925781 85.027344 179.15625 97.097656 174.757812 110.308594 C 165.9375 136.789062 165.054688 165.859375 150.96875 190.304688 C 136.371094 215.636719 112.363281 232.367188 90.851562 249.609375 C 69.640625 266.609375 48.15625 285.578125 36.527344 312.210938 C 26.714844 334.695312 24.460938 360.042969 28.105469 383.910156 C 31.863281 408.492188 41.914062 431.464844 56.886719 449.601562 C 72.742188 468.808594 94.441406 481.496094 117.296875 487.992188 C 140.71875 494.652344 165.894531 494.863281 190.023438 489.628906 C 202.777344 486.851562 215.074219 482.707031 226.90625 477.199219 C 241.773438 470.304688 256.003906 461.773438 270.445312 453.8125 C 284.722656 445.9375 299.28125 438.78125 314.589844 434.082031 C 329.34375 429.550781 344.4375 427.011719 359.523438 424.984375 C 389.8125 420.917969 420.515625 418.78125 449.949219 408.140625 C 476.71875 398.464844 501.964844 381.328125 516.796875 353.835938 Z M 516.796875 353.835938 " fill-opacity="1" fill-rule="nonzero"/></g></g></g><path fill="#ffffff" d="M 493.769531 187.351562 C 493.769531 205.058594 479.414062 219.410156 461.707031 219.410156 C 444.003906 219.410156 429.648438 205.058594 429.648438 187.351562 C 429.648438 169.644531 444.003906 155.289062 461.707031 155.289062 C 479.414062 155.289062 493.769531 169.644531 493.769531 187.351562 " fill-opacity="1" fill-rule="nonzero"/><g clip-path="url(#68461067ab)"><path fill="#004f3b" d="M 461.707031 155.609375 C 444.207031 155.609375 429.96875 169.847656 429.96875 187.351562 C 429.96875 204.851562 444.207031 219.089844 461.707031 219.089844 C 479.210938 219.089844 493.445312 204.851562 493.445312 187.351562 C 493.445312 169.847656 479.210938 155.609375 461.707031 155.609375 Z M 461.707031 219.730469 C 443.855469 219.730469 429.328125 205.207031 429.328125 187.351562 C 429.328125 169.496094 443.855469 154.972656 461.707031 154.972656 C 479.5625 154.972656 494.085938 169.496094 494.085938 187.351562 C 494.085938 205.207031 479.5625 219.730469 461.707031 219.730469 " fill-opacity="1" fill-rule="nonzero"/></g><path fill="#004f3b" d="M 461.707031 168.363281 C 461.53125 168.363281 461.386719 168.222656 461.386719 168.046875 L 461.386719 161.65625 C 461.386719 161.480469 461.53125 161.335938 461.707031 161.335938 C 461.882812 161.335938 462.027344 161.480469 462.027344 161.65625 L 462.027344 168.046875 C 462.027344 168.222656 461.882812 168.363281 461.707031 168.363281 " fill-opacity="1" fill-rule="nonzero"/><path fill="#004f3b" d="M 461.707031 213.363281 C 461.53125 213.363281 461.386719 213.21875 461.386719 213.042969 L 461.386719 206.65625 C 461.386719 206.480469 461.53125 206.335938 461.707031 206.335938 C 461.882812 206.335938 462.027344 206.480469 462.027344 206.65625 L 462.027344 213.042969 C 462.027344 213.21875 461.882812 213.363281 461.707031 213.363281 " fill-opacity="1" fill-rule="nonzero"/><path fill="#004f3b" d="M 442.402344 187.671875 L 436.015625 187.671875 C 435.835938 187.671875 435.695312 187.527344 435.695312 187.351562 C 435.695312 187.175781 435.835938 187.03125 436.015625 187.03125 L 442.402344 187.03125 C 442.578125 187.03125 442.722656 187.175781 442.722656 187.351562 C 442.722656 187.527344 442.578125 187.671875 442.402344 187.671875 " fill-opacity="1" fill-rule="nonzero"/><path fill="#004f3b" d="M 487.402344 187.671875 L 481.011719 187.671875 C 480.835938 187.671875 480.691406 187.527344 480.691406 187.351562 C 480.691406 187.175781 480.835938 187.03125 481.011719 187.03125 L 487.402344 187.03125 C 487.578125 187.03125 487.722656 187.175781 487.722656 187.351562 C 487.722656 187.527344 487.578125 187.671875 487.402344 187.671875 " fill-opacity="1" fill-rule="nonzero"/><path fill="#00bc7d" d="M 486.332031 175.597656 C 483.539062 169.757812 478.726562 165.070312 472.800781 162.429688 L 461.707031 187.351562 L 486.332031 175.597656 " fill-opacity="1" fill-rule="nonzero"/><path fill="#004f3b" d="M 456.480469 199.511719 C 456.433594 199.511719 456.390625 199.503906 456.347656 199.484375 C 456.1875 199.414062 456.117188 199.226562 456.1875 199.0625 L 461.414062 187.222656 C 461.425781 187.195312 461.441406 187.167969 461.460938 187.148438 L 476.117188 169.453125 C 476.230469 169.316406 476.433594 169.296875 476.570312 169.410156 C 476.707031 169.523438 476.722656 169.722656 476.613281 169.859375 L 461.984375 187.519531 L 456.773438 199.324219 C 456.71875 199.441406 456.601562 199.511719 456.480469 199.511719 " fill-opacity="1" fill-rule="nonzero"/><path fill="#007a55" d="M 296.496094 269.097656 C 294.457031 269.097656 292.535156 269.589844 290.832031 270.457031 L 290.832031 240.484375 L 214.921875 240.484375 C 211.421875 240.484375 208.582031 243.324219 208.582031 246.824219 L 208.582031 322.734375 L 239.058594 322.734375 C 237.878906 320.828125 237.199219 318.578125 237.199219 316.171875 C 237.199219 309.261719 242.800781 303.660156 249.710938 303.660156 C 256.617188 303.660156 262.21875 309.261719 262.21875 316.171875 C 262.21875 318.578125 261.539062 320.828125 260.359375 322.734375 L 290.832031 322.734375 L 290.832031 292.761719 C 292.535156 293.628906 294.457031 294.121094 296.496094 294.121094 C 303.40625 294.121094 309.007812 288.519531 309.007812 281.609375 C 309.007812 274.703125 303.40625 269.097656 296.496094 269.097656 " fill-opacity="1" fill-rule="nonzero"/><path fill="#00bc7d" d="M 342.597656 322.820312 C 343.78125 324.734375 344.46875 326.988281 344.46875 329.40625 C 344.46875 336.316406 338.867188 341.914062 331.957031 341.914062 C 325.050781 341.914062 319.449219 336.316406 319.449219 329.40625 C 319.449219 326.988281 320.136719 324.734375 321.320312 322.820312 L 290.832031 322.820312 L 290.832031 352.792969 C 292.535156 351.925781 294.457031 351.433594 296.496094 351.433594 C 303.40625 351.433594 309.007812 357.035156 309.007812 363.945312 C 309.007812 370.855469 303.40625 376.457031 296.496094 376.457031 C 294.457031 376.457031 292.535156 375.964844 290.832031 375.097656 L 290.832031 405.070312 L 366.746094 405.070312 C 370.246094 405.070312 373.085938 402.234375 373.085938 398.730469 L 373.085938 322.820312 L 342.597656 322.820312 " fill-opacity="1" fill-rule="nonzero"/><path fill="#ffffff" d="M 296.496094 351.433594 C 294.457031 351.433594 292.535156 351.925781 290.832031 352.792969 L 290.832031 322.820312 L 260.304688 322.820312 C 261.515625 320.894531 262.21875 318.613281 262.21875 316.171875 C 262.21875 309.261719 256.617188 303.660156 249.710938 303.660156 C 242.800781 303.660156 237.199219 309.261719 237.199219 316.171875 C 237.199219 318.613281 237.902344 320.894531 239.113281 322.820312 L 208.582031 322.820312 L 208.582031 398.730469 C 208.582031 402.234375 211.421875 405.070312 214.921875 405.070312 L 290.832031 405.070312 L 290.832031 375.097656 C 292.535156 375.964844 294.457031 376.457031 296.496094 376.457031 C 303.40625 376.457031 309.007812 370.855469 309.007812 363.945312 C 309.007812 357.035156 303.40625 351.433594 296.496094 351.433594 " fill-opacity="1" fill-rule="nonzero"/><path fill="#004f3b" d="M 290.832031 405.390625 L 214.921875 405.390625 C 211.25 405.390625 208.261719 402.402344 208.261719 398.730469 L 208.261719 322.820312 C 208.261719 322.644531 208.40625 322.5 208.582031 322.5 C 208.761719 322.5 208.90625 322.644531 208.90625 322.820312 L 208.90625 398.730469 C 208.90625 402.050781 211.605469 404.75 214.921875 404.75 L 290.832031 404.75 C 291.011719 404.75 291.152344 404.894531 291.152344 405.070312 C 291.152344 405.246094 291.011719 405.390625 290.832031 405.390625 " fill-opacity="1" fill-rule="nonzero"/><path fill="#ffffff" d="M 229.121094 229.304688 L 119.363281 229.304688 L 119.363281 163.8125 L 229.121094 163.8125 L 229.121094 229.304688 " fill-opacity="1" fill-rule="nonzero"/><path fill="#004f3b" d="M 119.683594 228.984375 L 228.800781 228.984375 L 228.800781 164.132812 L 119.683594 164.132812 Z M 229.121094 229.625 L 119.363281 229.625 C 119.1875 229.625 119.042969 229.480469 119.042969 229.304688 L 119.042969 163.8125 C 119.042969 163.636719 119.1875 163.492188 119.363281 163.492188 L 229.121094 163.492188 C 229.296875 163.492188 229.441406 163.636719 229.441406 163.8125 L 229.441406 229.304688 C 229.441406 229.480469 229.296875 229.625 229.121094 229.625 " fill-opacity="1" fill-rule="nonzero"/><g clip-path="url(#0c5a22de5e)"><path fill="#004f3b" d="M 145.179688 171.546875 C 145.003906 171.546875 144.859375 171.402344 144.859375 171.226562 C 144.859375 171.050781 145.003906 170.90625 145.179688 170.90625 C 149.398438 170.90625 152.828125 167.476562 152.828125 163.257812 C 152.828125 159.042969 149.398438 155.609375 145.179688 155.609375 C 140.964844 155.609375 137.53125 159.042969 137.53125 163.257812 C 137.53125 163.433594 137.390625 163.578125 137.210938 163.578125 C 137.035156 163.578125 136.890625 163.433594 136.890625 163.257812 C 136.890625 158.6875 140.609375 154.972656 145.179688 154.972656 C 149.75 154.972656 153.46875 158.6875 153.46875 163.257812 C 153.46875 167.828125 149.75 171.546875 145.179688 171.546875 " fill-opacity="1" fill-rule="nonzero"/></g><g clip-path="url(#f778335e43)"><path fill="#004f3b" d="M 174.242188 171.546875 C 174.066406 171.546875 173.921875 171.402344 173.921875 171.226562 C 173.921875 171.050781 174.066406 170.90625 174.242188 170.90625 C 178.457031 170.90625 181.890625 167.476562 181.890625 163.257812 C 181.890625 159.042969 178.457031 155.609375 174.242188 155.609375 C 170.023438 155.609375 166.59375 159.042969 166.59375 163.257812 C 166.59375 163.433594 166.453125 163.578125 166.273438 163.578125 C 166.097656 163.578125 165.953125 163.433594 165.953125 163.257812 C 165.953125 158.6875 169.671875 154.972656 174.242188 154.972656 C 178.8125 154.972656 182.527344 158.6875 182.527344 163.257812 C 182.527344 167.828125 178.8125 171.546875 174.242188 171.546875 " fill-opacity="1" fill-rule="nonzero"/></g><g clip-path="url(#fcfdb5b8ca)"><path fill="#004f3b" d="M 203.304688 171.546875 C 203.128906 171.546875 202.984375 171.402344 202.984375 171.226562 C 202.984375 171.050781 203.128906 170.90625 203.304688 170.90625 C 207.519531 170.90625 210.949219 167.476562 210.949219 163.257812 C 210.949219 159.042969 207.519531 155.609375 203.304688 155.609375 C 199.085938 155.609375 195.65625 159.042969 195.65625 163.257812 C 195.65625 163.433594 195.511719 163.578125 195.335938 163.578125 C 195.160156 163.578125 195.015625 163.433594 195.015625 163.257812 C 195.015625 158.6875 198.734375 154.972656 203.304688 154.972656 C 207.875 154.972656 211.589844 158.6875 211.589844 163.257812 C 211.589844 167.828125 207.875 171.546875 203.304688 171.546875 " fill-opacity="1" fill-rule="nonzero"/></g><path fill="#00bc7d" d="M 147.121094 195.113281 L 129.433594 195.113281 L 129.433594 177.425781 L 147.121094 177.425781 L 147.121094 195.113281 " fill-opacity="1" fill-rule="nonzero"/><path fill="#ffffff" d="M 168.921875 195.113281 L 151.234375 195.113281 L 151.234375 177.425781 L 168.921875 177.425781 L 168.921875 195.113281 " fill-opacity="1" fill-rule="nonzero"/><path fill="#004f3b" d="M 151.554688 194.792969 L 168.601562 194.792969 L 168.601562 177.746094 L 151.554688 177.746094 Z M 168.921875 195.429688 L 151.234375 195.429688 C 151.058594 195.429688 150.914062 195.289062 150.914062 195.113281 L 150.914062 177.425781 C 150.914062 177.25 151.058594 177.105469 151.234375 177.105469 L 168.921875 177.105469 C 169.097656 177.105469 169.242188 177.25 169.242188 177.425781 L 169.242188 195.113281 C 169.242188 195.289062 169.097656 195.429688 168.921875 195.429688 " fill-opacity="1" fill-rule="nonzero"/><path fill="#ffffff" d="M 190.71875 195.113281 L 173.035156 195.113281 L 173.035156 177.425781 L 190.71875 177.425781 L 190.71875 195.113281 " fill-opacity="1" fill-rule="nonzero"/><path fill="#004f3b" d="M 173.355469 194.792969 L 190.398438 194.792969 L 190.398438 177.746094 L 173.355469 177.746094 Z M 190.71875 195.429688 L 173.035156 195.429688 C 172.855469 195.429688 172.714844 195.289062 172.714844 195.113281 L 172.714844 177.425781 C 172.714844 177.25 172.855469 177.105469 173.035156 177.105469 L 190.71875 177.105469 C 190.898438 177.105469 191.039062 177.25 191.039062 177.425781 L 191.039062 195.113281 C 191.039062 195.289062 190.898438 195.429688 190.71875 195.429688 " fill-opacity="1" fill-rule="nonzero"/><path fill="#ffffff" d="M 212.519531 195.113281 L 194.835938 195.113281 L 194.835938 177.425781 L 212.519531 177.425781 L 212.519531 195.113281 " fill-opacity="1" fill-rule="nonzero"/><path fill="#004f3b" d="M 195.152344 194.792969 L 212.199219 194.792969 L 212.199219 177.746094 L 195.152344 177.746094 Z M 212.519531 195.429688 L 194.835938 195.429688 C 194.65625 195.429688 194.515625 195.289062 194.515625 195.113281 L 194.515625 177.425781 C 194.515625 177.25 194.65625 177.105469 194.835938 177.105469 L 212.519531 177.105469 C 212.699219 177.105469 212.839844 177.25 212.839844 177.425781 L 212.839844 195.113281 C 212.839844 195.289062 212.699219 195.429688 212.519531 195.429688 " fill-opacity="1" fill-rule="nonzero"/><path fill="#ffffff" d="M 234.320312 195.113281 L 216.632812 195.113281 L 216.632812 177.425781 L 234.320312 177.425781 L 234.320312 195.113281 " fill-opacity="1" fill-rule="nonzero"/><path fill="#004f3b" d="M 216.953125 194.792969 L 234 194.792969 L 234 177.746094 L 216.953125 177.746094 Z M 234.320312 195.429688 L 216.632812 195.429688 C 216.457031 195.429688 216.3125 195.289062 216.3125 195.113281 L 216.3125 177.425781 C 216.3125 177.25 216.457031 177.105469 216.632812 177.105469 L 234.320312 177.105469 C 234.496094 177.105469 234.640625 177.25 234.640625 177.425781 L 234.640625 195.113281 C 234.640625 195.289062 234.496094 195.429688 234.320312 195.429688 " fill-opacity="1" fill-rule="nonzero"/><path fill="#004f3b" d="M 129.753906 215.742188 L 146.800781 215.742188 L 146.800781 198.699219 L 129.753906 198.699219 Z M 147.121094 216.382812 L 129.433594 216.382812 C 129.257812 216.382812 129.113281 216.242188 129.113281 216.0625 L 129.113281 198.378906 C 129.113281 198.199219 129.257812 198.054688 129.433594 198.054688 L 147.121094 198.054688 C 147.296875 198.054688 147.441406 198.199219 147.441406 198.378906 L 147.441406 216.0625 C 147.441406 216.242188 147.296875 216.382812 147.121094 216.382812 " fill-opacity="1" fill-rule="nonzero"/><path fill="#ffffff" d="M 147.121094 216.0625 L 129.433594 216.0625 L 129.433594 198.378906 L 147.121094 198.378906 L 147.121094 216.0625 " fill-opacity="1" fill-rule="nonzero"/><path fill="#004f3b" d="M 129.753906 215.742188 L 146.800781 215.742188 L 146.800781 198.699219 L 129.753906 198.699219 Z M 147.121094 216.382812 L 129.433594 216.382812 C 129.257812 216.382812 129.113281 216.242188 129.113281 216.0625 L 129.113281 198.378906 C 129.113281 198.199219 129.257812 198.054688 129.433594 198.054688 L 147.121094 198.054688 C 147.296875 198.054688 147.441406 198.199219 147.441406 198.378906 L 147.441406 216.0625 C 147.441406 216.242188 147.296875 216.382812 147.121094 216.382812 " fill-opacity="1" fill-rule="nonzero"/><path fill="#ffffff" d="M 168.921875 216.0625 L 151.234375 216.0625 L 151.234375 198.378906 L 168.921875 198.378906 L 168.921875 216.0625 " fill-opacity="1" fill-rule="nonzero"/><path fill="#004f3b" d="M 151.554688 215.742188 L 168.601562 215.742188 L 168.601562 198.699219 L 151.554688 198.699219 Z M 168.921875 216.382812 L 151.234375 216.382812 C 151.058594 216.382812 150.914062 216.242188 150.914062 216.0625 L 150.914062 198.378906 C 150.914062 198.199219 151.058594 198.054688 151.234375 198.054688 L 168.921875 198.054688 C 169.097656 198.054688 169.242188 198.199219 169.242188 198.378906 L 169.242188 216.0625 C 169.242188 216.242188 169.097656 216.382812 168.921875 216.382812 " fill-opacity="1" fill-rule="nonzero"/><path fill="#007a55" d="M 190.71875 216.0625 L 173.035156 216.0625 L 173.035156 198.378906 L 190.71875 198.378906 L 190.71875 216.0625 " fill-opacity="1" fill-rule="nonzero"/><path fill="#ffffff" d="M 212.519531 216.0625 L 194.835938 216.0625 L 194.835938 198.378906 L 212.519531 198.378906 L 212.519531 216.0625 " fill-opacity="1" fill-rule="nonzero"/><path fill="#004f3b" d="M 195.152344 215.742188 L 212.199219 215.742188 L 212.199219 198.699219 L 195.152344 198.699219 Z M 212.519531 216.382812 L 194.835938 216.382812 C 194.65625 216.382812 194.515625 216.242188 194.515625 216.0625 L 194.515625 198.378906 C 194.515625 198.199219 194.65625 198.054688 194.835938 198.054688 L 212.519531 198.054688 C 212.699219 198.054688 212.839844 198.199219 212.839844 198.378906 L 212.839844 216.0625 C 212.839844 216.242188 212.699219 216.382812 212.519531 216.382812 " fill-opacity="1" fill-rule="nonzero"/><path fill="#ffffff" d="M 234.320312 216.0625 L 216.632812 216.0625 L 216.632812 198.378906 L 234.320312 198.378906 L 234.320312 216.0625 " fill-opacity="1" fill-rule="nonzero"/><path fill="#004f3b" d="M 216.953125 215.742188 L 234 215.742188 L 234 198.699219 L 216.953125 198.699219 Z M 234.320312 216.382812 L 216.632812 216.382812 C 216.457031 216.382812 216.3125 216.242188 216.3125 216.0625 L 216.3125 198.378906 C 216.3125 198.199219 216.457031 198.054688 216.632812 198.054688 L 234.320312 198.054688 C 234.496094 198.054688 234.640625 198.199219 234.640625 198.378906 L 234.640625 216.0625 C 234.640625 216.242188 234.496094 216.382812 234.320312 216.382812 " fill-opacity="1" fill-rule="nonzero"/><path fill="#ffffff" d="M 147.121094 237.015625 L 129.433594 237.015625 L 129.433594 219.332031 L 147.121094 219.332031 L 147.121094 237.015625 " fill-opacity="1" fill-rule="nonzero"/><path fill="#004f3b" d="M 129.753906 236.695312 L 146.800781 236.695312 L 146.800781 219.652344 L 129.753906 219.652344 Z M 147.121094 237.335938 L 129.433594 237.335938 C 129.257812 237.335938 129.113281 237.195312 129.113281 237.015625 L 129.113281 219.332031 C 129.113281 219.152344 129.257812 219.007812 129.433594 219.007812 L 147.121094 219.007812 C 147.296875 219.007812 147.441406 219.152344 147.441406 219.332031 L 147.441406 237.015625 C 147.441406 237.195312 147.296875 237.335938 147.121094 237.335938 " fill-opacity="1" fill-rule="nonzero"/><path fill="#ffffff" d="M 147.121094 237.015625 L 129.433594 237.015625 L 129.433594 219.332031 L 147.121094 219.332031 L 147.121094 237.015625 " fill-opacity="1" fill-rule="nonzero"/><path fill="#004f3b" d="M 129.753906 236.695312 L 146.800781 236.695312 L 146.800781 219.652344 L 129.753906 219.652344 Z M 147.121094 237.335938 L 129.433594 237.335938 C 129.257812 237.335938 129.113281 237.195312 129.113281 237.015625 L 129.113281 219.332031 C 129.113281 219.152344 129.257812 219.007812 129.433594 219.007812 L 147.121094 219.007812 C 147.296875 219.007812 147.441406 219.152344 147.441406 219.332031 L 147.441406 237.015625 C 147.441406 237.195312 147.296875 237.335938 147.121094 237.335938 " fill-opacity="1" fill-rule="nonzero"/><path fill="#ffffff" d="M 168.921875 237.015625 L 151.234375 237.015625 L 151.234375 219.332031 L 168.921875 219.332031 L 168.921875 237.015625 " fill-opacity="1" fill-rule="nonzero"/><path fill="#004f3b" d="M 151.554688 236.695312 L 168.601562 236.695312 L 168.601562 219.652344 L 151.554688 219.652344 Z M 168.921875 237.335938 L 151.234375 237.335938 C 151.058594 237.335938 150.914062 237.195312 150.914062 237.015625 L 150.914062 219.332031 C 150.914062 219.152344 151.058594 219.007812 151.234375 219.007812 L 168.921875 219.007812 C 169.097656 219.007812 169.242188 219.152344 169.242188 219.332031 L 169.242188 237.015625 C 169.242188 237.195312 169.097656 237.335938 168.921875 237.335938 " fill-opacity="1" fill-rule="nonzero"/><path fill="#00bc7d" d="M 190.71875 237.015625 L 173.035156 237.015625 L 173.035156 219.332031 L 190.71875 219.332031 L 190.71875 237.015625 " fill-opacity="1" fill-rule="nonzero"/><path fill="#ffffff" d="M 115.691406 316.21875 L 121.539062 415.804688 C 121.746094 418.566406 124.050781 420.703125 126.820312 420.703125 L 150.289062 420.703125 C 152.890625 420.703125 154.925781 418.460938 154.675781 415.871094 L 154.199219 410.9375 L 149.023438 308.097656 L 115.691406 316.21875 " fill-opacity="1" fill-rule="nonzero"/><g clip-path="url(#821b36bddf)"><path fill="#004f3b" d="M 116.027344 316.46875 L 121.859375 415.785156 C 122.050781 418.359375 124.230469 420.382812 126.820312 420.382812 L 150.289062 420.382812 C 151.4375 420.382812 152.542969 419.894531 153.316406 419.042969 C 154.085938 418.191406 154.46875 417.046875 154.359375 415.902344 L 153.882812 410.96875 L 148.722656 308.5 Z M 150.289062 421.023438 L 126.820312 421.023438 C 123.898438 421.023438 121.4375 418.738281 121.222656 415.824219 L 115.371094 316.238281 C 115.363281 316.085938 115.464844 315.945312 115.613281 315.90625 L 148.949219 307.789062 C 149.039062 307.765625 149.136719 307.785156 149.214844 307.84375 C 149.292969 307.898438 149.339844 307.988281 149.34375 308.082031 L 154.519531 410.921875 L 154.996094 415.84375 C 155.121094 417.164062 154.683594 418.488281 153.789062 419.472656 C 152.894531 420.457031 151.621094 421.023438 150.289062 421.023438 " fill-opacity="1" fill-rule="nonzero"/></g><path fill="#004f3b" d="M 123.128906 413.03125 C 122.957031 413.03125 122.8125 412.890625 122.808594 412.71875 C 122.804688 412.539062 122.945312 412.394531 123.121094 412.390625 C 134.105469 412.136719 140.886719 411.597656 151.15625 410.78125 L 153.863281 410.5625 C 154.046875 410.554688 154.195312 410.683594 154.207031 410.859375 C 154.222656 411.035156 154.089844 411.191406 153.914062 411.203125 L 151.207031 411.417969 C 140.929688 412.234375 134.136719 412.777344 123.136719 413.03125 C 123.132812 413.03125 123.132812 413.03125 123.128906 413.03125 " fill-opacity="1" fill-rule="nonzero"/><path fill="#004f3b" d="M 129.671875 396.46875 C 126.972656 396.46875 124.171875 396.386719 121.175781 396.230469 C 121 396.222656 120.863281 396.070312 120.871094 395.894531 C 120.882812 395.71875 121.035156 395.578125 121.207031 395.589844 C 132.984375 396.199219 141.679688 395.65625 153.285156 393.589844 C 153.460938 393.558594 153.625 393.675781 153.65625 393.847656 C 153.6875 394.019531 153.574219 394.1875 153.398438 394.21875 C 144.695312 395.769531 137.621094 396.46875 129.671875 396.46875 " fill-opacity="1" fill-rule="nonzero"/><path fill="#ffffff" d="M 131.492188 316.21875 L 170.28125 415.804688 C 170.484375 418.566406 172.789062 420.703125 175.558594 420.703125 L 211.878906 420.703125 C 213.339844 420.703125 213.984375 418.863281 212.847656 417.949219 L 204.125 410.9375 L 160.558594 308.097656 L 131.492188 316.21875 " fill-opacity="1" fill-rule="nonzero"/><g clip-path="url(#3bb8df6c5e)"><path fill="#004f3b" d="M 131.917969 316.433594 L 170.578125 415.6875 C 170.589844 415.714844 170.597656 415.746094 170.597656 415.777344 C 170.792969 418.359375 172.972656 420.382812 175.558594 420.382812 L 211.878906 420.382812 C 212.519531 420.382812 212.894531 419.957031 213.035156 419.5625 C 213.175781 419.164062 213.144531 418.601562 212.648438 418.199219 L 203.921875 411.1875 C 203.882812 411.15625 203.851562 411.113281 203.828125 411.0625 L 160.375 308.484375 Z M 211.878906 421.023438 L 175.558594 421.023438 C 172.652344 421.023438 170.207031 418.765625 169.964844 415.875 L 131.195312 316.335938 C 131.160156 316.25 131.164062 316.160156 131.207031 316.078125 C 131.246094 315.996094 131.320312 315.9375 131.40625 315.910156 L 160.472656 307.789062 C 160.628906 307.746094 160.792969 307.824219 160.855469 307.972656 L 204.386719 410.738281 L 213.046875 417.699219 C 213.671875 418.203125 213.90625 419.015625 213.640625 419.773438 C 213.371094 420.53125 212.683594 421.023438 211.878906 421.023438 " fill-opacity="1" fill-rule="nonzero"/></g><path fill="#004f3b" d="M 171.867188 413.03125 C 171.695312 413.03125 171.550781 412.890625 171.546875 412.71875 C 171.542969 412.539062 171.683594 412.394531 171.859375 412.390625 C 183.777344 412.113281 191.757812 411.515625 203.789062 410.5625 C 203.96875 410.554688 204.117188 410.683594 204.132812 410.859375 C 204.144531 411.035156 204.015625 411.191406 203.835938 411.203125 C 191.796875 412.15625 183.808594 412.753906 171.875 413.03125 C 171.875 413.03125 171.871094 413.03125 171.867188 413.03125 " fill-opacity="1" fill-rule="nonzero"/><path fill="#004f3b" d="M 170.808594 395.429688 C 168.453125 395.429688 165.96875 395.363281 163.289062 395.226562 C 163.113281 395.214844 162.976562 395.066406 162.984375 394.890625 C 162.996094 394.714844 163.148438 394.578125 163.320312 394.585938 C 174.421875 395.160156 182.378906 394.601562 194.851562 392.378906 C 195.027344 392.347656 195.191406 392.464844 195.222656 392.636719 C 195.253906 392.8125 195.136719 392.980469 194.964844 393.011719 C 186.417969 394.53125 179.484375 395.429688 170.808594 395.429688 " fill-opacity="1" fill-rule="nonzero"/><path fill="#007a55" d="M 98.015625 284.90625 C 96.738281 281.394531 95.808594 277.382812 95.527344 272.878906 C 94.503906 256.441406 115.691406 239.710938 115.691406 239.710938 L 121.464844 239.402344 L 115.691406 277.605469 L 116.601562 280.730469 C 113.121094 282.628906 105.308594 286.230469 98.015625 284.90625 " fill-opacity="1" fill-rule="nonzero"/><path fill="#ffffff" d="M 116.601562 280.730469 L 121.464844 297.4375 C 121.464844 297.4375 113.128906 304.75 109.679688 301.988281 C 107.171875 299.988281 101.390625 294.207031 98.015625 284.90625 C 105.308594 286.230469 113.121094 282.628906 116.601562 280.730469 " fill-opacity="1" fill-rule="nonzero"/><path fill="#004f3b" d="M 111.628906 302.925781 C 110.820312 302.925781 110.085938 302.726562 109.476562 302.238281 C 108.179688 301.203125 101.515625 295.5 97.714844 285.015625 C 97.652344 284.847656 97.738281 284.664062 97.90625 284.601562 C 98.070312 284.546875 98.253906 284.628906 98.316406 284.796875 C 102.058594 295.117188 108.605469 300.722656 109.878906 301.738281 C 113.078125 304.300781 121.171875 297.265625 121.253906 297.195312 C 121.386719 297.078125 121.589844 297.09375 121.707031 297.226562 C 121.824219 297.359375 121.808594 297.5625 121.675781 297.675781 C 121.386719 297.933594 115.636719 302.925781 111.628906 302.925781 " fill-opacity="1" fill-rule="nonzero"/><path fill="#004f3b" d="M 142.839844 297.4375 L 107.539062 297.4375 L 100.625 266.125 L 135.925781 266.125 L 142.839844 297.4375 " fill-opacity="1" fill-rule="nonzero"/><path fill="#007a55" d="M 115.691406 239.710938 C 115.691406 239.710938 128.726562 239.011719 141.074219 239.417969 C 141.277344 240 141.476562 240.582031 141.679688 241.164062 C 152.226562 271.53125 162.773438 301.894531 173.316406 332.257812 C 172.839844 332.398438 169.226562 333.476562 166.09375 331.191406 C 164.289062 329.871094 162.800781 327.386719 162.601562 322.832031 C 162.601562 322.832031 159.296875 335.660156 137.667969 334.144531 C 116.039062 332.632812 113.664062 328.488281 113.664062 328.488281 L 115.691406 239.710938 " fill-opacity="1" fill-rule="nonzero"/><path fill="#004f3b" d="M 115.015625 266.179688 C 114.863281 266.179688 114.726562 266.074219 114.703125 265.917969 L 113.234375 257.527344 L 112.636719 257.964844 C 112.496094 258.070312 112.296875 258.039062 112.191406 257.898438 C 112.085938 257.753906 112.117188 257.554688 112.257812 257.449219 L 113.269531 256.703125 C 113.359375 256.636719 113.472656 256.621094 113.578125 256.664062 C 113.679688 256.703125 113.753906 256.796875 113.773438 256.90625 L 115.332031 265.808594 C 115.363281 265.980469 115.246094 266.148438 115.074219 266.175781 C 115.054688 266.179688 115.035156 266.179688 115.015625 266.179688 " fill-opacity="1" fill-rule="nonzero"/><path fill="#007a55" d="M 141.074219 239.417969 L 170.21875 243.074219 C 170.21875 243.074219 169.828125 241.730469 169.308594 239.660156 C 176.601562 243.511719 182.03125 240.882812 184.527344 238.6875 C 187.453125 242.980469 190.136719 248.398438 188.972656 252.726562 C 186.683594 261.261719 168.390625 266.535156 141.910156 258.84375 L 138.132812 241.351562 L 141.074219 239.417969 " fill-opacity="1" fill-rule="nonzero"/><path fill="#ffffff" d="M 169.308594 239.660156 C 168.332031 235.75 166.914062 229.253906 166.832031 224.265625 C 166.707031 216.636719 170.304688 213.320312 171.613281 213.824219 C 172.921875 214.328125 172.15625 215.863281 171.613281 217.199219 C 171.074219 218.535156 170.792969 219.699219 170.792969 219.699219 C 170.792969 219.699219 172.753906 217.519531 174.230469 219.984375 C 174.230469 219.984375 176.511719 217.660156 177.582031 220.238281 C 177.582031 220.238281 180.039062 218.371094 181.070312 221.339844 C 182.101562 224.308594 179.570312 224.265625 179.570312 224.265625 C 179.570312 224.265625 179.527344 229.089844 178.605469 231.402344 C 178.605469 231.402344 181.683594 234.511719 184.527344 238.6875 C 182.03125 240.882812 176.601562 243.511719 169.308594 239.660156 " fill-opacity="1" fill-rule="nonzero"/><path fill="#004f3b" d="M 169.101562 239.140625 C 168.957031 239.140625 168.828125 239.042969 168.792969 238.894531 C 167.792969 234.777344 166.585938 228.894531 166.511719 224.273438 C 166.417969 218.546875 168.386719 215.113281 170.101562 213.917969 C 170.707031 213.492188 171.285156 213.355469 171.730469 213.527344 C 172.125 213.679688 172.394531 213.921875 172.539062 214.257812 C 172.863281 215.011719 172.445312 216.019531 172.042969 216.992188 L 171.910156 217.320312 C 171.683594 217.882812 171.5 218.414062 171.371094 218.839844 C 171.742188 218.621094 172.21875 218.445312 172.734375 218.496094 C 173.328125 218.554688 173.851562 218.890625 174.292969 219.496094 C 174.730469 219.140625 175.589844 218.566406 176.445312 218.730469 C 176.972656 218.832031 177.398438 219.183594 177.71875 219.773438 C 178.152344 219.527344 178.96875 219.175781 179.78125 219.421875 C 180.492188 219.636719 181.027344 220.246094 181.371094 221.234375 C 181.75 222.324219 181.722656 223.183594 181.289062 223.785156 C 180.890625 224.335938 180.265625 224.507812 179.886719 224.5625 C 179.859375 225.621094 179.722656 229.25 178.976562 231.324219 C 179.621094 231.996094 182.308594 234.863281 184.792969 238.507812 C 184.890625 238.652344 184.855469 238.851562 184.707031 238.953125 C 184.5625 239.050781 184.363281 239.015625 184.261719 238.867188 C 181.464844 234.761719 178.410156 231.660156 178.378906 231.628906 C 178.289062 231.535156 178.261719 231.402344 178.308594 231.285156 C 179.195312 229.050781 179.25 224.3125 179.25 224.265625 C 179.25 224.179688 179.285156 224.097656 179.347656 224.039062 C 179.40625 223.976562 179.5 223.945312 179.574219 223.949219 C 179.597656 223.949219 180.386719 223.941406 180.773438 223.40625 C 181.074219 222.984375 181.074219 222.324219 180.765625 221.445312 C 180.496094 220.660156 180.101562 220.1875 179.59375 220.035156 C 178.75 219.78125 177.789062 220.484375 177.777344 220.492188 C 177.699219 220.554688 177.597656 220.570312 177.5 220.546875 C 177.40625 220.519531 177.328125 220.453125 177.289062 220.363281 C 177.042969 219.773438 176.71875 219.4375 176.328125 219.359375 C 175.609375 219.222656 174.738281 219.925781 174.457031 220.207031 C 174.390625 220.277344 174.292969 220.3125 174.191406 220.300781 C 174.09375 220.289062 174.007812 220.230469 173.957031 220.148438 C 173.582031 219.523438 173.148438 219.179688 172.671875 219.132812 C 171.835938 219.054688 171.039062 219.90625 171.03125 219.914062 C 170.933594 220.023438 170.773438 220.050781 170.644531 219.980469 C 170.515625 219.914062 170.445312 219.765625 170.480469 219.625 C 170.492188 219.574219 170.773438 218.421875 171.316406 217.078125 L 171.453125 216.75 C 171.789062 215.9375 172.167969 215.015625 171.949219 214.511719 C 171.878906 214.339844 171.730469 214.210938 171.5 214.125 C 171.265625 214.035156 170.882812 214.152344 170.46875 214.441406 C 169.191406 215.332031 167.054688 218.40625 167.152344 224.261719 C 167.226562 228.824219 168.421875 234.65625 169.414062 238.746094 C 169.457031 238.917969 169.351562 239.089844 169.179688 239.132812 C 169.152344 239.140625 169.128906 239.140625 169.101562 239.140625 " fill-opacity="1" fill-rule="nonzero"/><path fill="#004f3b" d="M 179.433594 223.839844 C 179.285156 223.839844 179.152344 223.734375 179.121094 223.582031 L 178.859375 222.289062 C 178.824219 222.113281 178.933594 221.945312 179.109375 221.910156 C 179.285156 221.878906 179.449219 221.988281 179.484375 222.160156 L 179.75 223.453125 C 179.785156 223.628906 179.671875 223.796875 179.5 223.832031 C 179.476562 223.835938 179.457031 223.839844 179.433594 223.839844 " fill-opacity="1" fill-rule="nonzero"/><path fill="#004f3b" d="M 171.210938 247.164062 C 171.066406 247.164062 170.933594 247.0625 170.898438 246.914062 L 170.15625 243.621094 C 170.117188 243.445312 170.226562 243.273438 170.398438 243.234375 C 170.570312 243.199219 170.742188 243.304688 170.78125 243.480469 L 171.523438 246.773438 C 171.5625 246.949219 171.457031 247.117188 171.28125 247.15625 C 171.257812 247.164062 171.234375 247.164062 171.210938 247.164062 " fill-opacity="1" fill-rule="nonzero"/><path fill="#ffffff" d="M 135.535156 230.039062 L 134.152344 238.777344 L 137.578125 239.457031 C 137.578125 239.457031 137.011719 240.8125 124.53125 240.179688 C 115.429688 239.722656 129.507812 225.148438 129.507812 225.148438 C 129.507812 225.148438 132.402344 227.117188 135.535156 230.039062 " fill-opacity="1" fill-rule="nonzero"/><path fill="#004f3b" d="M 137.578125 239.722656 C 137.558594 239.722656 137.539062 239.722656 137.519531 239.71875 L 134.09375 239.089844 C 133.925781 239.058594 133.808594 238.898438 133.835938 238.726562 L 135.050781 230.964844 C 131.984375 228.027344 131.175781 224.476562 131.140625 224.324219 C 131.105469 224.152344 131.214844 223.980469 131.386719 223.941406 C 131.558594 223.902344 131.730469 224.011719 131.769531 224.1875 C 131.777344 224.222656 132.597656 227.792969 135.613281 230.613281 C 135.691406 230.683594 135.726562 230.792969 135.710938 230.894531 L 134.515625 238.515625 L 137.636719 239.089844 C 137.808594 239.121094 137.925781 239.289062 137.894531 239.460938 C 137.863281 239.613281 137.730469 239.722656 137.578125 239.722656 " fill-opacity="1" fill-rule="nonzero"/><path fill="#004f3b" d="M 143.769531 213.082031 C 140.390625 211.289062 138.324219 210.074219 132.148438 211.945312 C 126.53125 213.644531 108.199219 230.011719 105.28125 233.960938 C 102.359375 237.910156 101.546875 243.433594 103.554688 247.914062 C 105.5625 252.398438 110.46875 255.523438 115.363281 255.085938 C 119.675781 254.699219 123.457031 251.761719 125.789062 248.113281 C 128.125 244.464844 129.203125 240.164062 129.953125 235.898438 C 130.320312 233.828125 131.46875 227.914062 132.964844 226.441406 C 133.902344 225.519531 134.394531 228.699219 135.621094 228.222656 C 137.765625 227.394531 140.511719 223.414062 143.351562 222.328125 C 148.347656 220.410156 147.5 215.0625 143.769531 213.082031 " fill-opacity="1" fill-rule="nonzero"/><path fill="#ffffff" d="M 143.585938 220.113281 C 143.585938 220.113281 138.9375 218.746094 137.929688 220.824219 C 136.921875 222.902344 136.25 223.835938 134.820312 223.980469 C 134.820312 223.980469 132.359375 220.625 130.375 222.582031 C 128.386719 224.539062 130.136719 227.136719 132.375 227.789062 C 132.375 227.789062 132.796875 231.167969 136.824219 231.886719 C 140.847656 232.605469 142.753906 226.582031 143.585938 220.113281 " fill-opacity="1" fill-rule="nonzero"/><path fill="#004f3b" d="M 131.757812 222.289062 C 131.332031 222.289062 130.953125 222.460938 130.597656 222.8125 C 129.9375 223.464844 129.695312 224.234375 129.898438 225.039062 C 130.167969 226.117188 131.226562 227.121094 132.464844 227.480469 C 132.589844 227.515625 132.679688 227.621094 132.695312 227.75 C 132.710938 227.875 133.148438 230.90625 136.878906 231.570312 C 137.753906 231.726562 138.527344 231.546875 139.246094 231.019531 C 141.105469 229.65625 142.480469 225.96875 143.234375 220.347656 C 141.855469 219.992188 138.898438 219.558594 138.21875 220.964844 C 137.160156 223.140625 136.425781 224.136719 134.851562 224.300781 C 134.742188 224.308594 134.628906 224.261719 134.5625 224.171875 C 134.550781 224.152344 133.246094 222.402344 131.886719 222.292969 C 131.84375 222.292969 131.800781 222.289062 131.757812 222.289062 Z M 137.464844 232.261719 C 137.234375 232.261719 137.003906 232.242188 136.765625 232.199219 C 133.152344 231.554688 132.277344 228.816406 132.097656 228.035156 C 130.714844 227.566406 129.59375 226.445312 129.277344 225.195312 C 129.019531 224.171875 129.328125 223.164062 130.148438 222.355469 C 130.671875 221.839844 131.277344 221.605469 131.9375 221.65625 C 133.339844 221.769531 134.578125 223.167969 134.960938 223.640625 C 136.121094 223.449219 136.71875 222.585938 137.640625 220.683594 C 138.753906 218.386719 143.476562 219.746094 143.679688 219.804688 C 143.828125 219.851562 143.925781 219.996094 143.90625 220.15625 C 143.128906 226.195312 141.6875 230.023438 139.625 231.535156 C 138.964844 232.019531 138.238281 232.261719 137.464844 232.261719 " fill-opacity="1" fill-rule="nonzero"/><path fill="#004f3b" d="M 133.652344 226.363281 C 133.511719 226.363281 133.382812 226.269531 133.34375 226.128906 C 133.144531 225.375 132.503906 224.753906 131.746094 224.582031 C 131.574219 224.539062 131.46875 224.367188 131.507812 224.195312 C 131.546875 224.023438 131.71875 223.914062 131.890625 223.957031 C 132.871094 224.183594 133.707031 224.988281 133.964844 225.960938 C 134.007812 226.132812 133.90625 226.308594 133.734375 226.355469 C 133.707031 226.363281 133.679688 226.363281 133.652344 226.363281 " fill-opacity="1" fill-rule="nonzero"/><g clip-path="url(#92f5d40c32)"><path fill="#004f3b" d="M 175.558594 421.023438 L 95.492188 421.023438 C 95.316406 421.023438 95.171875 420.878906 95.171875 420.703125 C 95.171875 420.523438 95.316406 420.382812 95.492188 420.382812 L 175.558594 420.382812 C 175.734375 420.382812 175.878906 420.523438 175.878906 420.703125 C 175.878906 420.878906 175.734375 421.023438 175.558594 421.023438 " fill-opacity="1" fill-rule="nonzero"/></g><path fill="#004f3b" d="M 420.039062 187.671875 L 356.398438 187.671875 C 356.21875 187.671875 356.078125 187.527344 356.078125 187.351562 C 356.078125 187.175781 356.21875 187.03125 356.398438 187.03125 L 420.039062 187.03125 C 420.214844 187.03125 420.359375 187.175781 420.359375 187.351562 C 420.359375 187.527344 420.214844 187.671875 420.039062 187.671875 " fill-opacity="1" fill-rule="nonzero"/><path fill="#00bc7d" d="M 324.128906 187.367188 C 324.132812 189.515625 322.398438 191.261719 320.257812 191.265625 C 318.113281 191.273438 316.371094 189.53125 316.367188 187.382812 C 316.363281 185.234375 318.097656 183.488281 320.238281 183.480469 C 322.382812 183.476562 324.125 185.214844 324.128906 187.367188 " fill-opacity="1" fill-rule="nonzero"/><path fill="#00bc7d" d="M 335.457031 187.34375 C 335.460938 189.492188 333.726562 191.238281 331.585938 191.242188 C 329.441406 191.246094 327.699219 189.507812 327.695312 187.359375 C 327.691406 185.207031 329.425781 183.464844 331.570312 183.457031 C 333.710938 183.453125 335.453125 185.191406 335.457031 187.34375 " fill-opacity="1" fill-rule="nonzero"/><path fill="#00bc7d" d="M 346.785156 187.320312 C 346.789062 189.46875 345.054688 191.214844 342.914062 191.21875 C 340.769531 191.222656 339.027344 189.484375 339.023438 187.335938 C 339.019531 185.1875 340.753906 183.441406 342.898438 183.433594 C 345.039062 183.429688 346.78125 185.167969 346.785156 187.320312 " fill-opacity="1" fill-rule="nonzero"/><path fill="#004f3b" d="M 290.832031 231.195312 C 290.65625 231.195312 290.515625 231.050781 290.515625 230.875 L 290.515625 187.382812 C 290.515625 187.207031 290.65625 187.0625 290.832031 187.0625 L 306.757812 187.0625 C 306.933594 187.0625 307.074219 187.207031 307.074219 187.382812 C 307.074219 187.558594 306.933594 187.703125 306.757812 187.703125 L 291.152344 187.703125 L 291.152344 230.875 C 291.152344 231.050781 291.011719 231.195312 290.832031 231.195312 " fill-opacity="1" fill-rule="nonzero"/><path fill="#004f3b" d="M 308.019531 249.328125 C 307.9375 249.328125 307.855469 249.292969 307.792969 249.230469 C 307.667969 249.105469 307.667969 248.902344 307.792969 248.777344 L 339.449219 217.136719 C 339.574219 217.011719 339.777344 217.011719 339.902344 217.136719 L 351.519531 228.746094 L 372.828125 207.445312 C 372.953125 207.320312 373.15625 207.320312 373.28125 207.445312 C 373.40625 207.570312 373.40625 207.773438 373.28125 207.898438 L 351.746094 229.425781 C 351.621094 229.550781 351.417969 229.550781 351.292969 229.425781 L 339.675781 217.816406 L 308.246094 249.230469 C 308.183594 249.292969 308.101562 249.328125 308.019531 249.328125 " fill-opacity="1" fill-rule="nonzero"/><path fill="#004f3b" d="M 371.816406 211.789062 L 371.234375 211.515625 L 373.007812 207.71875 L 369.207031 209.488281 L 368.9375 208.90625 L 374.335938 206.394531 L 371.816406 211.789062 " fill-opacity="1" fill-rule="nonzero"/><path fill="#ffffff" d="M 479.351562 397.097656 C 461.921875 399.21875 451.699219 409.242188 451.699219 409.242188 L 440.113281 416.886719 C 438.40625 418.03125 439.214844 420.699219 441.273438 420.699219 L 459.457031 420.699219 C 462.65625 420.699219 465.765625 419.648438 468.308594 417.710938 L 479.4375 409.242188 C 481.78125 407.457031 482.675781 404.34375 481.625 401.589844 L 479.351562 397.097656 " fill-opacity="1" fill-rule="nonzero"/><g clip-path="url(#4115db5680)"><path fill="#004f3b" d="M 451.699219 409.242188 L 451.703125 409.242188 Z M 479.167969 397.441406 C 462.179688 399.585938 452.023438 409.375 451.921875 409.472656 C 451.910156 409.488281 451.894531 409.5 451.875 409.511719 L 440.292969 417.152344 C 439.492188 417.6875 439.414062 418.550781 439.585938 419.128906 C 439.761719 419.703125 440.308594 420.378906 441.273438 420.378906 L 459.457031 420.378906 C 462.566406 420.378906 465.640625 419.339844 468.113281 417.457031 L 479.246094 408.988281 C 481.457031 407.304688 482.3125 404.316406 481.332031 401.71875 Z M 459.457031 421.015625 L 441.273438 421.015625 C 440.191406 421.015625 439.289062 420.347656 438.972656 419.3125 C 438.660156 418.277344 439.039062 417.222656 439.9375 416.621094 L 451.5 408.992188 C 452.0625 408.457031 462.375 398.839844 479.3125 396.777344 C 479.449219 396.757812 479.574219 396.832031 479.636719 396.949219 L 481.910156 401.441406 C 481.917969 401.453125 481.921875 401.464844 481.925781 401.476562 C 483.015625 404.339844 482.070312 407.640625 479.632812 409.496094 L 468.503906 417.964844 C 465.917969 419.933594 462.707031 421.015625 459.457031 421.015625 " fill-opacity="1" fill-rule="nonzero"/></g><path fill="#007a55" d="M 433.191406 274.21875 L 400.421875 285.171875 L 450.433594 409.988281 C 450.433594 409.988281 465.863281 409.554688 480.054688 397.453125 L 433.191406 274.21875 " fill-opacity="1" fill-rule="nonzero"/><path fill="#ffffff" d="M 372.425781 415.9375 C 370.542969 417.582031 371.699219 420.699219 374.1875 420.699219 L 403.5625 420.699219 C 406.757812 420.699219 409.441406 418.273438 409.785156 415.070312 L 410.289062 409.867188 C 396.214844 405.507812 382.40625 407.511719 382.40625 407.511719 L 372.425781 415.9375 " fill-opacity="1" fill-rule="nonzero"/><g clip-path="url(#f6225cb5a4)"><path fill="#004f3b" d="M 372.632812 416.179688 C 371.710938 416.984375 371.6875 418.078125 371.96875 418.832031 C 372.25 419.578125 372.980469 420.378906 374.1875 420.378906 L 403.5625 420.378906 C 406.601562 420.378906 409.136719 418.082031 409.464844 415.035156 L 409.945312 410.097656 C 396.769531 406.085938 383.742188 407.660156 382.539062 407.816406 Z M 403.5625 421.015625 L 374.1875 421.015625 C 372.902344 421.015625 371.824219 420.265625 371.371094 419.058594 C 370.917969 417.855469 371.25 416.535156 372.214844 415.695312 C 372.214844 415.695312 372.214844 415.691406 372.21875 415.691406 L 382.199219 407.269531 C 382.246094 407.230469 382.300781 407.203125 382.359375 407.195312 C 382.496094 407.175781 396.402344 405.230469 410.386719 409.5625 C 410.53125 409.605469 410.625 409.746094 410.609375 409.898438 L 410.101562 415.101562 C 409.738281 418.476562 406.925781 421.015625 403.5625 421.015625 " fill-opacity="1" fill-rule="nonzero"/></g><path fill="#007a55" d="M 441.230469 293.675781 C 442.988281 290.195312 443.523438 286.222656 442.75 282.398438 L 441.613281 276.765625 L 415.804688 279.929688 L 394.742188 326.136719 C 392.257812 331.585938 390.617188 337.382812 389.882812 343.324219 L 381.882812 407.738281 C 381.882812 407.738281 396.347656 410.21875 410.585938 410.371094 L 420.683594 335.367188 L 441.230469 293.675781 " fill-opacity="1" fill-rule="nonzero"/><path fill="#ffffff" d="M 407.695312 298.039062 C 407.652344 298.039062 407.605469 298.03125 407.5625 298.011719 C 407.402344 297.9375 407.332031 297.746094 407.40625 297.585938 L 412.199219 287.070312 C 412.269531 286.910156 412.460938 286.839844 412.621094 286.914062 C 412.78125 286.984375 412.855469 287.175781 412.78125 287.335938 L 407.988281 297.851562 C 407.933594 297.96875 407.816406 298.039062 407.695312 298.039062 " fill-opacity="1" fill-rule="nonzero"/><path fill="#ffffff" d="M 377.386719 243.238281 L 390.941406 232.636719 C 393.957031 230.277344 397.414062 228.542969 401.113281 227.554688 C 411.152344 224.875 423.265625 221.960938 433.867188 227.117188 L 437.957031 244.992188 L 377.386719 243.238281 " fill-opacity="1" fill-rule="nonzero"/><path fill="#004f3b" d="M 378.28125 242.945312 L 437.550781 244.660156 L 433.589844 227.339844 C 422.691406 222.121094 409.765625 225.574219 401.199219 227.863281 C 397.535156 228.839844 394.152344 230.53125 391.140625 232.890625 Z M 437.957031 245.3125 C 437.953125 245.3125 437.949219 245.3125 437.945312 245.3125 L 377.375 243.558594 C 377.242188 243.554688 377.125 243.46875 377.082031 243.339844 C 377.039062 243.210938 377.082031 243.070312 377.1875 242.988281 L 390.746094 232.382812 C 393.828125 229.976562 397.289062 228.246094 401.03125 227.246094 C 409.726562 224.921875 422.867188 221.414062 434.003906 226.832031 C 434.09375 226.875 434.15625 226.953125 434.175781 227.046875 L 438.269531 244.921875 C 438.289062 245.015625 438.265625 245.117188 438.203125 245.195312 C 438.144531 245.269531 438.050781 245.3125 437.957031 245.3125 " fill-opacity="1" fill-rule="nonzero"/><path fill="#ffffff" d="M 449.851562 247.0625 C 449.851562 243.085938 446.628906 239.863281 442.648438 239.863281 L 356.398438 239.863281 L 356.398438 273.914062 C 358.328125 272.929688 360.515625 272.375 362.832031 272.375 C 370.683594 272.375 377.046875 278.738281 377.046875 286.589844 C 377.046875 294.441406 370.683594 300.804688 362.832031 300.804688 C 360.515625 300.804688 358.328125 300.246094 356.398438 299.261719 L 356.398438 333.316406 L 391.101562 333.316406 C 389.714844 335.511719 388.910156 338.105469 388.910156 340.894531 C 388.910156 348.746094 395.273438 355.109375 403.125 355.109375 C 410.976562 355.109375 417.339844 348.746094 417.339844 340.894531 C 417.339844 338.105469 416.53125 335.511719 415.148438 333.316406 L 449.851562 333.316406 L 449.851562 247.0625 " fill-opacity="1" fill-rule="nonzero"/><path fill="#004f3b" d="M 356.71875 332.996094 L 391.101562 332.996094 C 391.21875 332.996094 391.324219 333.058594 391.378906 333.160156 C 391.4375 333.261719 391.433594 333.386719 391.371094 333.488281 C 389.96875 335.707031 389.230469 338.265625 389.230469 340.894531 C 389.230469 348.554688 395.460938 354.789062 403.125 354.789062 C 410.785156 354.789062 417.019531 348.554688 417.019531 340.894531 C 417.019531 338.265625 416.277344 335.707031 414.878906 333.488281 C 414.816406 333.386719 414.8125 333.265625 414.867188 333.160156 C 414.921875 333.058594 415.03125 332.996094 415.148438 332.996094 L 449.53125 332.996094 L 449.53125 247.0625 C 449.53125 243.269531 446.445312 240.179688 442.648438 240.179688 L 356.71875 240.179688 L 356.71875 273.402344 C 358.640625 272.507812 360.695312 272.054688 362.832031 272.054688 C 370.847656 272.054688 377.367188 278.574219 377.367188 286.589844 C 377.367188 294.601562 370.847656 301.121094 362.832031 301.121094 C 360.695312 301.121094 358.640625 300.667969 356.71875 299.773438 Z M 403.125 355.429688 C 395.109375 355.429688 388.589844 348.910156 388.589844 340.894531 C 388.589844 338.335938 389.257812 335.839844 390.53125 333.636719 L 356.398438 333.636719 C 356.21875 333.636719 356.078125 333.492188 356.078125 333.316406 L 356.078125 299.261719 C 356.078125 299.148438 356.132812 299.046875 356.230469 298.988281 C 356.324219 298.929688 356.441406 298.925781 356.542969 298.976562 C 358.507812 299.976562 360.625 300.484375 362.832031 300.484375 C 370.492188 300.484375 376.726562 294.25 376.726562 286.589844 C 376.726562 278.925781 370.492188 272.691406 362.832031 272.691406 C 360.625 272.691406 358.507812 273.199219 356.542969 274.199219 C 356.441406 274.253906 356.324219 274.246094 356.230469 274.1875 C 356.132812 274.128906 356.078125 274.027344 356.078125 273.914062 L 356.078125 239.863281 C 356.078125 239.683594 356.21875 239.542969 356.398438 239.542969 L 442.648438 239.542969 C 446.796875 239.542969 450.171875 242.914062 450.171875 247.0625 L 450.171875 333.316406 C 450.171875 333.492188 450.027344 333.636719 449.851562 333.636719 L 415.714844 333.636719 C 416.988281 335.839844 417.660156 338.335938 417.660156 340.894531 C 417.660156 348.910156 411.136719 355.429688 403.125 355.429688 " fill-opacity="1" fill-rule="nonzero"/><path fill="#ffffff" d="M 432.394531 284.925781 L 453.609375 284.925781 C 453.609375 284.925781 454.511719 266.78125 454.847656 255.550781 C 455.183594 244.316406 443.230469 228.410156 427.222656 224.898438 L 418.996094 236.269531 L 432.339844 254.125 C 433.277344 255.042969 433.679688 256.371094 433.414062 257.65625 L 432.394531 284.925781 " fill-opacity="1" fill-rule="nonzero"/><path fill="#004f3b" d="M 453.609375 285.246094 L 432.394531 285.246094 C 432.304688 285.246094 432.222656 285.210938 432.160156 285.148438 C 432.101562 285.085938 432.070312 285.003906 432.074219 284.914062 L 433.09375 257.644531 C 433.09375 257.625 433.097656 257.609375 433.101562 257.589844 C 433.34375 256.410156 432.976562 255.199219 432.117188 254.351562 C 432.105469 254.34375 432.09375 254.328125 432.085938 254.316406 L 418.738281 236.460938 C 418.632812 236.316406 418.664062 236.117188 418.804688 236.011719 C 418.945312 235.90625 419.148438 235.933594 419.253906 236.074219 L 432.582031 253.914062 C 433.582031 254.90625 434.011719 256.3125 433.734375 257.695312 L 432.726562 284.609375 L 453.304688 284.609375 C 453.425781 282.179688 454.21875 265.847656 454.527344 255.539062 C 454.691406 250.070312 451.820312 243.335938 446.851562 237.519531 C 441.425781 231.175781 434.382812 226.792969 427.015625 225.175781 C 426.84375 225.136719 426.734375 224.96875 426.769531 224.792969 C 426.808594 224.621094 426.984375 224.511719 427.152344 224.550781 C 443.347656 228.101562 455.507812 244.136719 455.167969 255.558594 C 454.835938 266.664062 453.9375 284.761719 453.929688 284.941406 C 453.917969 285.113281 453.78125 285.246094 453.609375 285.246094 " fill-opacity="1" fill-rule="nonzero"/><path fill="#ffffff" d="M 376.121094 281.542969 C 374.6875 282.019531 372.84375 282.457031 370.78125 282.523438 C 361.359375 282.832031 360.117188 279.65625 358.761719 276.863281 C 357.402344 274.070312 357.597656 271.703125 359.148438 272.050781 C 359.148438 272.050781 359.265625 268.390625 362.871094 270.6875 C 362.871094 270.6875 364.265625 268.445312 366.984375 271.355469 C 366.984375 271.355469 369.621094 269.730469 372.488281 276.203125 L 373.003906 276.296875 C 373.003906 276.296875 375.046875 278.589844 376.121094 281.542969 " fill-opacity="1" fill-rule="nonzero"/><path fill="#004f3b" d="M 358.855469 272.339844 C 358.617188 272.339844 358.496094 272.449219 358.421875 272.542969 C 357.992188 273.089844 358.066406 274.699219 359.050781 276.722656 L 359.167969 276.972656 C 360.480469 279.6875 361.84375 282.488281 370.769531 282.203125 C 372.40625 282.148438 374.0625 281.859375 375.699219 281.339844 C 374.753906 278.929688 373.1875 277.003906 372.835938 276.59375 L 372.429688 276.519531 C 372.328125 276.5 372.238281 276.429688 372.195312 276.332031 C 370.683594 272.921875 369.277344 271.867188 368.363281 271.585938 C 367.621094 271.355469 367.152344 271.625 367.148438 271.628906 C 367.019531 271.707031 366.851562 271.683594 366.75 271.574219 C 365.839844 270.597656 364.976562 270.117188 364.25 270.191406 C 363.523438 270.261719 363.148438 270.851562 363.144531 270.855469 C 363.097656 270.929688 363.023438 270.980469 362.941406 271 C 362.859375 271.019531 362.773438 271.003906 362.699219 270.957031 C 361.660156 270.292969 360.824219 270.09375 360.289062 270.375 C 359.523438 270.78125 359.46875 272.050781 359.46875 272.0625 C 359.464844 272.15625 359.417969 272.25 359.34375 272.304688 C 359.269531 272.363281 359.167969 272.386719 359.078125 272.363281 C 358.992188 272.347656 358.921875 272.339844 358.855469 272.339844 Z M 369.554688 282.863281 C 361.300781 282.863281 359.867188 279.890625 358.59375 277.25 L 358.472656 277 C 357.472656 274.941406 357.25 272.992188 357.921875 272.144531 C 358.152344 271.851562 358.480469 271.699219 358.863281 271.699219 C 358.941406 271.183594 359.191406 270.230469 359.988281 269.8125 C 360.703125 269.433594 361.644531 269.585938 362.796875 270.265625 C 363.039062 270.003906 363.5 269.621094 364.1875 269.554688 C 365.082031 269.46875 366.050781 269.941406 367.058594 270.972656 C 367.347656 270.871094 367.875 270.765625 368.554688 270.976562 C 370.042969 271.4375 371.4375 273.097656 372.710938 275.917969 L 373.0625 275.984375 C 373.132812 275.996094 373.199219 276.03125 373.246094 276.085938 C 373.328125 276.179688 375.335938 278.457031 376.421875 281.433594 C 376.449219 281.515625 376.445312 281.601562 376.40625 281.679688 C 376.371094 281.757812 376.304688 281.816406 376.222656 281.84375 C 374.421875 282.449219 372.59375 282.785156 370.792969 282.84375 C 370.363281 282.855469 369.949219 282.863281 369.554688 282.863281 " fill-opacity="1" fill-rule="nonzero"/><path fill="#004f3b" d="M 369.761719 279.527344 C 369.652344 279.527344 369.546875 279.46875 369.484375 279.371094 C 368.414062 277.5625 367.417969 275.679688 366.527344 273.777344 C 366.375 273.453125 366.1875 273.050781 366.136719 272.605469 C 366.078125 272.085938 366.242188 271.59375 366.578125 271.296875 C 366.707031 271.179688 366.910156 271.1875 367.027344 271.320312 C 367.148438 271.453125 367.136719 271.65625 367.003906 271.773438 C 366.828125 271.929688 366.738281 272.226562 366.773438 272.539062 C 366.808594 272.847656 366.9375 273.148438 367.105469 273.503906 C 367.988281 275.390625 368.976562 277.253906 370.035156 279.042969 C 370.125 279.195312 370.074219 279.390625 369.921875 279.480469 C 369.871094 279.511719 369.816406 279.527344 369.761719 279.527344 " fill-opacity="1" fill-rule="nonzero"/><path fill="#004f3b" d="M 366.21875 279.695312 C 366.105469 279.695312 365.996094 279.636719 365.9375 279.527344 L 362.804688 273.648438 C 362.570312 273.207031 362.324219 272.75 362.222656 272.226562 C 362.097656 271.597656 362.222656 270.996094 362.566406 270.582031 C 362.679688 270.449219 362.878906 270.429688 363.015625 270.542969 C 363.152344 270.652344 363.171875 270.855469 363.058594 270.992188 C 362.84375 271.253906 362.765625 271.667969 362.851562 272.101562 C 362.933594 272.53125 363.15625 272.945312 363.371094 273.347656 L 366.503906 279.226562 C 366.585938 279.382812 366.527344 279.574219 366.371094 279.660156 C 366.320312 279.683594 366.269531 279.695312 366.21875 279.695312 " fill-opacity="1" fill-rule="nonzero"/><path fill="#004f3b" d="M 363.058594 280.566406 C 362.957031 280.566406 362.859375 280.515625 362.796875 280.429688 C 361.027344 277.878906 359.699219 275.074219 358.847656 272.09375 C 358.800781 271.921875 358.898438 271.746094 359.066406 271.695312 C 359.238281 271.648438 359.414062 271.746094 359.464844 271.917969 C 360.296875 274.832031 361.59375 277.574219 363.320312 280.0625 C 363.421875 280.207031 363.386719 280.40625 363.242188 280.507812 C 363.1875 280.546875 363.121094 280.566406 363.058594 280.566406 " fill-opacity="1" fill-rule="nonzero"/><path fill="#ffffff" d="M 432.394531 284.925781 C 432.394531 284.925781 432.128906 290.402344 431.367188 293.34375 C 430.605469 296.28125 429.84375 299.332031 431.910156 299.765625 C 433.980469 300.199219 435.394531 295.410156 435.941406 294.757812 C 436.484375 294.105469 435.613281 305.316406 436.484375 306.84375 C 437.355469 308.367188 439.066406 307.675781 439.71875 306.804688 C 439.71875 306.804688 440.289062 308.984375 441.921875 308.875 C 443.558594 308.765625 444.441406 306.847656 444.441406 306.847656 C 444.441406 306.847656 445.605469 307.792969 446.691406 307.03125 C 447.78125 306.269531 448.324219 304.527344 448.324219 304.527344 C 448.324219 304.527344 449.527344 306.488281 451.011719 304.421875 C 452.449219 302.414062 453.609375 284.925781 453.609375 284.925781 L 432.394531 284.925781 " fill-opacity="1" fill-rule="nonzero"/><path fill="#004f3b" d="M 439.71875 306.484375 C 439.738281 306.484375 439.761719 306.484375 439.78125 306.492188 C 439.902344 306.515625 439.996094 306.605469 440.027344 306.722656 C 440.035156 306.742188 440.566406 308.644531 441.902344 308.554688 C 443.328125 308.460938 444.144531 306.730469 444.152344 306.714844 C 444.195312 306.625 444.273438 306.558594 444.371094 306.539062 C 444.464844 306.515625 444.566406 306.539062 444.644531 306.601562 C 444.683594 306.632812 445.636719 307.378906 446.507812 306.765625 C 447.496094 306.074219 448.015625 304.445312 448.019531 304.429688 C 448.058594 304.308594 448.160156 304.222656 448.285156 304.207031 C 448.414062 304.195312 448.53125 304.25 448.597656 304.359375 C 448.601562 304.363281 449.019531 305.027344 449.585938 305.046875 C 449.597656 305.046875 449.605469 305.046875 449.613281 305.046875 C 449.980469 305.046875 450.363281 304.773438 450.75 304.234375 C 451.859375 302.6875 452.917969 290.324219 453.265625 285.246094 L 432.695312 285.246094 C 432.628906 286.449219 432.34375 290.851562 431.679688 293.421875 C 431.136719 295.507812 430.523438 297.871094 431.175781 298.921875 C 431.347656 299.203125 431.613281 299.375 431.980469 299.453125 C 433.28125 299.722656 434.453125 297.132812 435.082031 295.738281 C 435.34375 295.164062 435.53125 294.75 435.691406 294.554688 C 435.824219 294.398438 435.988281 294.390625 436.105469 294.433594 C 436.453125 294.5625 436.492188 294.816406 436.425781 298.882812 C 436.382812 301.679688 436.3125 305.898438 436.761719 306.683594 C 437.023438 307.144531 437.386719 307.390625 437.832031 307.417969 C 438.480469 307.460938 439.140625 307.042969 439.464844 306.613281 C 439.523438 306.53125 439.621094 306.484375 439.71875 306.484375 Z M 441.800781 309.199219 C 440.550781 309.199219 439.882812 308.082031 439.59375 307.398438 C 439.132812 307.789062 438.480469 308.097656 437.792969 308.058594 C 437.328125 308.027344 436.675781 307.824219 436.207031 307 C 435.710938 306.132812 435.722656 302.949219 435.785156 298.875 C 435.804688 297.734375 435.824219 296.492188 435.804688 295.699219 C 435.761719 295.796875 435.714844 295.898438 435.667969 296.003906 C 434.863281 297.777344 433.644531 300.460938 431.847656 300.078125 C 431.308594 299.964844 430.898438 299.691406 430.632812 299.257812 C 429.835938 297.976562 430.457031 295.578125 431.058594 293.261719 C 431.804688 290.390625 432.070312 284.964844 432.074219 284.914062 C 432.082031 284.742188 432.222656 284.609375 432.394531 284.609375 L 453.609375 284.609375 C 453.699219 284.609375 453.78125 284.644531 453.84375 284.710938 C 453.902344 284.773438 453.933594 284.859375 453.929688 284.949219 C 453.878906 285.664062 452.746094 302.550781 451.269531 304.605469 C 450.738281 305.347656 450.167969 305.714844 449.5625 305.6875 C 449.082031 305.667969 448.691406 305.402344 448.429688 305.152344 C 448.171875 305.761719 447.660156 306.742188 446.875 307.292969 C 446.042969 307.875 445.121094 307.628906 444.558594 307.3125 C 444.203125 307.902344 443.324219 309.101562 441.945312 309.191406 C 441.898438 309.195312 441.847656 309.199219 441.800781 309.199219 " fill-opacity="1" fill-rule="nonzero"/><path fill="#004f3b" d="M 394.519531 206.757812 C 393.789062 205.027344 393.734375 202.917969 394.789062 201.359375 C 395.992188 199.582031 398.257812 198.523438 400.402344 198.601562 C 405.003906 198.769531 404.523438 200.902344 406.925781 202.226562 C 408.539062 203.117188 409.359375 201.074219 412.125 203.445312 C 414.535156 205.511719 413.699219 209.800781 412.246094 212.625 C 410.796875 215.449219 407.660156 217.410156 404.496094 217.175781 C 402.0625 216.996094 399.761719 215.417969 398.699219 213.226562 C 398.085938 211.964844 398.054688 211.308594 397.046875 210.296875 C 396.019531 209.269531 395.089844 208.105469 394.519531 206.757812 " fill-opacity="1" fill-rule="nonzero"/><path fill="#ffffff" d="M 398.160156 221.050781 C 398.292969 221.316406 401.792969 226.632812 401.792969 226.632812 C 401.792969 226.632812 398.355469 228.914062 399.976562 230.699219 C 401.601562 232.488281 408.027344 229.714844 410.105469 225.226562 L 404.949219 217.195312 L 398.160156 221.050781 " fill-opacity="1" fill-rule="nonzero"/><path fill="#004f3b" d="M 398.160156 221.050781 L 398.164062 221.050781 Z M 398.605469 221.164062 C 399.140625 222.011719 400.867188 224.644531 402.0625 226.457031 C 402.160156 226.601562 402.117188 226.800781 401.972656 226.898438 C 401.953125 226.914062 400.03125 228.203125 399.871094 229.484375 C 399.828125 229.855469 399.9375 230.183594 400.214844 230.484375 C 400.570312 230.878906 401.285156 231.019531 402.226562 230.875 C 404.722656 230.492188 408.265625 228.242188 409.742188 225.25 L 404.84375 217.621094 Z M 401.542969 231.570312 C 400.746094 231.570312 400.132812 231.347656 399.742188 230.914062 C 399.335938 230.472656 399.167969 229.964844 399.238281 229.402344 C 399.394531 228.144531 400.769531 226.992188 401.359375 226.550781 C 400.515625 225.273438 398 221.445312 397.875 221.191406 C 397.796875 221.042969 397.851562 220.855469 398 220.773438 L 404.792969 216.914062 C 404.941406 216.832031 405.128906 216.878906 405.21875 217.023438 L 410.375 225.054688 C 410.4375 225.144531 410.441406 225.261719 410.398438 225.359375 C 408.863281 228.671875 405.085938 231.085938 402.324219 231.507812 C 402.046875 231.550781 401.785156 231.570312 401.542969 231.570312 " fill-opacity="1" fill-rule="nonzero"/><path fill="#ffffff" d="M 405.285156 219.222656 C 405.285156 219.222656 401.402344 225.136719 395.757812 222.703125 C 391.355469 220.804688 397.167969 209.539062 397.875 208.507812 C 397.875 208.507812 400.738281 209.960938 402.859375 209.414062 C 404.984375 208.871094 406.375 207.660156 407.589844 209.171875 C 408.796875 210.6875 403.804688 213.382812 406.375 214.984375 C 406.375 214.984375 409.585938 213.289062 410.765625 215.410156 C 411.945312 217.527344 407.648438 220.527344 405.285156 219.222656 " fill-opacity="1" fill-rule="nonzero"/><path fill="#004f3b" d="M 397.996094 208.917969 C 397.023438 210.546875 393.648438 217.523438 394.613281 220.878906 C 394.832031 221.632812 395.246094 222.132812 395.886719 222.410156 C 401.214844 224.707031 404.867188 219.28125 405.019531 219.046875 C 405.109375 218.90625 405.296875 218.863281 405.441406 218.941406 C 406.730469 219.65625 408.722656 218.898438 409.824219 217.789062 C 410.191406 217.421875 410.988281 216.46875 410.484375 215.566406 C 409.46875 213.742188 406.554688 215.253906 406.527344 215.269531 C 406.425781 215.320312 406.304688 215.316406 406.207031 215.257812 C 405.710938 214.945312 405.417969 214.566406 405.332031 214.121094 C 405.171875 213.246094 405.84375 212.34375 406.496094 211.476562 C 407.234375 210.492188 407.691406 209.8125 407.335938 209.375 C 406.621094 208.476562 405.90625 208.6875 404.496094 209.214844 C 404.03125 209.386719 403.511719 209.578125 402.941406 209.726562 C 401.085938 210.199219 398.773438 209.273438 397.996094 208.917969 Z M 398.464844 223.605469 C 397.578125 223.605469 396.632812 223.425781 395.628906 222.996094 C 394.816406 222.648438 394.269531 221.992188 394 221.054688 C 392.84375 217.042969 397.179688 208.957031 397.613281 208.328125 C 397.703125 208.195312 397.878906 208.148438 398.023438 208.222656 C 398.050781 208.234375 400.800781 209.613281 402.78125 209.105469 C 403.316406 208.96875 403.804688 208.789062 404.273438 208.613281 C 405.570312 208.128906 406.796875 207.675781 407.835938 208.972656 C 408.527344 209.835938 407.753906 210.863281 407.007812 211.859375 C 406.4375 212.617188 405.851562 213.402344 405.960938 214.003906 C 406.003906 214.226562 406.148438 214.429688 406.398438 214.613281 C 407.660156 214.007812 410.039062 213.445312 411.046875 215.253906 C 411.542969 216.144531 411.253906 217.261719 410.28125 218.242188 C 409.054688 219.472656 406.945312 220.28125 405.390625 219.628906 C 404.734375 220.507812 402.148438 223.605469 398.464844 223.605469 " fill-opacity="1" fill-rule="nonzero"/><path fill="#004f3b" d="M 408.535156 217.601562 C 408.480469 217.601562 408.425781 217.585938 408.371094 217.554688 C 407.84375 217.246094 407.167969 217.214844 406.609375 217.472656 C 406.449219 217.546875 406.257812 217.476562 406.183594 217.316406 C 406.109375 217.15625 406.179688 216.964844 406.339844 216.890625 C 407.085938 216.546875 407.988281 216.589844 408.699219 217.003906 C 408.851562 217.09375 408.902344 217.289062 408.8125 217.445312 C 408.753906 217.546875 408.644531 217.601562 408.535156 217.601562 " fill-opacity="1" fill-rule="nonzero"/><g clip-path="url(#1967ae0b15)"><path fill="#004f3b" d="M 493.929688 421.015625 L 403.5625 421.015625 C 403.386719 421.015625 403.242188 420.875 403.242188 420.699219 C 403.242188 420.519531 403.386719 420.378906 403.5625 420.378906 L 493.929688 420.378906 C 494.105469 420.378906 494.246094 420.519531 494.246094 420.699219 C 494.246094 420.875 494.105469 421.015625 493.929688 421.015625 " fill-opacity="1" fill-rule="nonzero"/></g><path fill="#ffffff" d="M 335.34375 370.539062 C 331.949219 380.925781 320.78125 386.597656 310.390625 383.207031 C 300 379.816406 294.328125 368.644531 297.71875 358.253906 C 301.113281 347.867188 312.285156 342.195312 322.671875 345.585938 C 333.058594 348.976562 338.734375 360.148438 335.34375 370.539062 " fill-opacity="1" fill-rule="nonzero"/><path fill="#004f3b" d="M 335.34375 370.539062 L 335.347656 370.539062 Z M 316.546875 344.925781 C 308.347656 344.925781 300.703125 350.148438 298.023438 358.355469 C 296.414062 363.296875 296.820312 368.574219 299.175781 373.210938 C 301.527344 377.847656 305.546875 381.289062 310.488281 382.902344 C 320.695312 386.234375 331.707031 380.640625 335.039062 370.4375 C 338.371094 360.234375 332.777344 349.222656 322.570312 345.890625 C 320.574219 345.238281 318.542969 344.925781 316.546875 344.925781 Z M 316.515625 384.503906 C 314.453125 384.503906 312.359375 384.183594 310.292969 383.511719 C 305.1875 381.84375 301.035156 378.289062 298.601562 373.5 C 296.171875 368.710938 295.75 363.261719 297.417969 358.15625 C 300.855469 347.617188 312.234375 341.839844 322.769531 345.28125 C 333.3125 348.722656 339.085938 360.097656 335.644531 370.636719 C 332.878906 379.109375 324.984375 384.503906 316.515625 384.503906 " fill-opacity="1" fill-rule="nonzero"/><path fill="#ffffff" d="M 331.320312 369.222656 C 328.652344 377.390625 319.871094 381.851562 311.703125 379.183594 C 303.535156 376.519531 299.078125 367.734375 301.742188 359.570312 C 304.410156 351.402344 313.191406 346.941406 321.359375 349.605469 C 329.527344 352.273438 333.988281 361.054688 331.320312 369.222656 " fill-opacity="1" fill-rule="nonzero"/><path fill="#004f3b" d="M 316.515625 349.152344 C 314.148438 349.152344 311.800781 349.707031 309.632812 350.808594 C 306.003906 352.652344 303.3125 355.796875 302.046875 359.667969 C 300.785156 363.535156 301.105469 367.667969 302.945312 371.296875 C 304.789062 374.925781 307.933594 377.617188 311.804688 378.882812 C 315.671875 380.144531 319.800781 379.824219 323.429688 377.980469 C 327.058594 376.140625 329.753906 372.992188 331.015625 369.125 C 332.28125 365.257812 331.960938 361.125 330.117188 357.496094 C 328.273438 353.871094 325.128906 351.171875 321.257812 349.910156 C 319.703125 349.402344 318.105469 349.152344 316.515625 349.152344 Z M 316.519531 380.273438 C 314.890625 380.273438 313.234375 380.023438 311.605469 379.488281 C 307.574219 378.171875 304.292969 375.367188 302.375 371.585938 C 300.457031 367.804688 300.121094 363.5 301.4375 359.46875 C 304.15625 351.148438 313.136719 346.585938 321.457031 349.304688 C 325.488281 350.617188 328.769531 353.425781 330.6875 357.207031 C 332.609375 360.988281 332.941406 365.292969 331.625 369.324219 L 331.320312 369.222656 L 331.625 369.324219 C 329.441406 376.015625 323.203125 380.273438 316.519531 380.273438 " fill-opacity="1" fill-rule="nonzero"/><path fill="#ffffff" d="M 311.75 375.761719 L 312.6875 372.886719 C 311.046875 372.320312 309.507812 371.25 308.742188 370.214844 L 310.046875 368.53125 C 310.851562 369.546875 312.152344 370.570312 313.746094 371.09375 C 315.765625 371.75 317.515625 371.03125 318.042969 369.410156 C 318.554688 367.84375 317.761719 366.511719 315.933594 364.972656 C 313.402344 362.886719 312.035156 360.992188 312.84375 358.515625 C 313.617188 356.152344 315.878906 354.910156 318.636719 355.335938 L 319.578125 352.460938 L 321.339844 353.039062 L 320.441406 355.796875 C 322.128906 356.414062 323.148438 357.25 323.816406 358.003906 L 322.488281 359.648438 C 322.003906 359.113281 321.042969 358.105469 319.21875 357.511719 C 317.027344 356.796875 315.777344 357.835938 315.40625 358.972656 C 314.921875 360.453125 315.730469 361.535156 317.875 363.371094 C 320.414062 365.523438 321.414062 367.484375 320.585938 370.019531 C 319.851562 372.265625 317.597656 373.859375 314.507812 373.386719 L 313.542969 376.347656 L 311.75 375.761719 " fill-opacity="1" fill-rule="nonzero"/><path fill="#004f3b" d="M 312.152344 375.558594 L 313.335938 375.945312 L 314.207031 373.289062 C 314.253906 373.140625 314.40625 373.046875 314.558594 373.070312 C 317.273438 373.488281 319.519531 372.25 320.28125 369.917969 C 321.023438 367.644531 320.265625 365.816406 317.667969 363.613281 C 315.535156 361.789062 314.550781 360.554688 315.101562 358.875 C 315.332031 358.160156 315.828125 357.585938 316.488281 357.261719 C 317.265625 356.875 318.246094 356.855469 319.320312 357.207031 C 320.972656 357.746094 321.949219 358.613281 322.472656 359.160156 L 323.390625 358.015625 C 322.597656 357.1875 321.59375 356.558594 320.332031 356.101562 C 320.167969 356.042969 320.082031 355.863281 320.136719 355.699219 L 320.9375 353.246094 L 319.78125 352.867188 L 318.941406 355.4375 C 318.894531 355.585938 318.746094 355.675781 318.589844 355.652344 C 316.003906 355.25 313.867188 356.414062 313.148438 358.617188 C 312.472656 360.683594 313.3125 362.398438 316.136719 364.726562 C 318.210938 366.476562 318.871094 367.90625 318.347656 369.507812 C 318.0625 370.390625 317.429688 371.0625 316.570312 371.402344 C 315.71875 371.746094 314.707031 371.742188 313.648438 371.398438 C 312.285156 370.953125 310.996094 370.101562 310.058594 369.042969 L 309.148438 370.214844 C 309.929688 371.15625 311.359375 372.089844 312.792969 372.585938 C 312.957031 372.644531 313.046875 372.820312 312.992188 372.988281 Z M 313.542969 376.667969 C 313.511719 376.667969 313.476562 376.664062 313.445312 376.652344 L 311.652344 376.066406 C 311.570312 376.039062 311.503906 375.984375 311.464844 375.90625 C 311.425781 375.832031 311.417969 375.742188 311.445312 375.664062 L 312.289062 373.082031 C 310.726562 372.484375 309.257812 371.453125 308.484375 370.402344 C 308.402344 370.289062 308.402344 370.132812 308.492188 370.019531 L 309.792969 368.335938 C 309.855469 368.257812 309.949219 368.210938 310.046875 368.210938 C 310.144531 368.210938 310.238281 368.257812 310.300781 368.332031 C 311.175781 369.441406 312.46875 370.339844 313.847656 370.789062 C 314.757812 371.085938 315.621094 371.09375 316.335938 370.808594 C 317.023438 370.535156 317.507812 370.015625 317.738281 369.308594 C 318.175781 367.976562 317.589844 366.792969 315.726562 365.21875 C 313.515625 363.394531 311.597656 361.308594 312.539062 358.417969 C 313.335938 355.980469 315.625 354.652344 318.417969 354.984375 L 319.273438 352.363281 C 319.296875 352.285156 319.355469 352.214844 319.433594 352.175781 C 319.507812 352.140625 319.59375 352.132812 319.675781 352.15625 L 321.441406 352.734375 C 321.519531 352.761719 321.589844 352.820312 321.628906 352.894531 C 321.664062 352.96875 321.671875 353.058594 321.644531 353.136719 L 320.839844 355.609375 C 322.164062 356.132812 323.21875 356.847656 324.054688 357.789062 C 324.160156 357.90625 324.160156 358.082031 324.0625 358.203125 L 322.738281 359.851562 C 322.679688 359.921875 322.59375 359.964844 322.5 359.96875 C 322.40625 359.972656 322.316406 359.933594 322.253906 359.863281 C 321.855469 359.425781 320.933594 358.40625 319.121094 357.816406 C 318.210938 357.519531 317.398438 357.523438 316.773438 357.835938 C 316.265625 358.085938 315.886719 358.523438 315.710938 359.074219 C 315.308594 360.300781 315.839844 361.207031 318.082031 363.128906 C 320.875 365.492188 321.714844 367.585938 320.890625 370.117188 C 320.199219 372.226562 318.035156 374.132812 314.730469 373.742188 L 313.847656 376.445312 C 313.800781 376.582031 313.675781 376.667969 313.542969 376.667969 " fill-opacity="1" fill-rule="nonzero"/><path fill="#ffffff" d="M 299.570312 377.292969 L 339.230469 377.292969 C 340.5 377.292969 341.53125 378.320312 341.53125 379.589844 L 341.53125 383.671875 C 341.53125 384.941406 340.5 385.96875 339.230469 385.96875 L 299.570312 385.96875 C 298.300781 385.96875 297.273438 384.941406 297.273438 383.671875 L 297.273438 379.589844 C 297.273438 378.320312 298.300781 377.292969 299.570312 377.292969 " fill-opacity="1" fill-rule="nonzero"/><path fill="#004f3b" d="M 299.570312 377.613281 C 298.480469 377.613281 297.59375 378.5 297.59375 379.589844 L 297.59375 383.671875 C 297.59375 384.761719 298.480469 385.648438 299.570312 385.648438 L 339.230469 385.648438 C 340.324219 385.648438 341.210938 384.761719 341.210938 383.671875 L 341.210938 379.589844 C 341.210938 378.5 340.324219 377.613281 339.230469 377.613281 Z M 339.230469 386.292969 L 299.570312 386.292969 C 298.128906 386.292969 296.953125 385.117188 296.953125 383.671875 L 296.953125 379.589844 C 296.953125 378.148438 298.128906 376.972656 299.570312 376.972656 L 339.230469 376.972656 C 340.675781 376.972656 341.851562 378.148438 341.851562 379.589844 L 341.851562 383.671875 C 341.851562 385.117188 340.675781 386.292969 339.230469 386.292969 " fill-opacity="1" fill-rule="nonzero"/><path fill="#004f3b" d="M 301.996094 384.554688 C 301.820312 384.554688 301.679688 384.410156 301.679688 384.234375 L 301.679688 378.738281 C 301.679688 378.5625 301.820312 378.417969 301.996094 378.417969 C 302.175781 378.417969 302.316406 378.5625 302.316406 378.738281 L 302.316406 384.234375 C 302.316406 384.410156 302.175781 384.554688 301.996094 384.554688 " fill-opacity="1" fill-rule="nonzero"/><path fill="#004f3b" d="M 304.957031 384.554688 C 304.78125 384.554688 304.636719 384.410156 304.636719 384.234375 L 304.636719 378.738281 C 304.636719 378.5625 304.78125 378.417969 304.957031 378.417969 C 305.136719 378.417969 305.277344 378.5625 305.277344 378.738281 L 305.277344 384.234375 C 305.277344 384.410156 305.136719 384.554688 304.957031 384.554688 " fill-opacity="1" fill-rule="nonzero"/><path fill="#004f3b" d="M 310.875 384.554688 C 310.699219 384.554688 310.554688 384.410156 310.554688 384.234375 L 310.554688 378.738281 C 310.554688 378.5625 310.699219 378.417969 310.875 378.417969 C 311.054688 378.417969 311.199219 378.5625 311.199219 378.738281 L 311.199219 384.234375 C 311.199219 384.410156 311.054688 384.554688 310.875 384.554688 " fill-opacity="1" fill-rule="nonzero"/><path fill="#004f3b" d="M 319.753906 384.554688 C 319.578125 384.554688 319.433594 384.410156 319.433594 384.234375 L 319.433594 378.738281 C 319.433594 378.5625 319.578125 378.417969 319.753906 378.417969 C 319.933594 378.417969 320.074219 378.5625 320.074219 378.738281 L 320.074219 384.234375 C 320.074219 384.410156 319.933594 384.554688 319.753906 384.554688 " fill-opacity="1" fill-rule="nonzero"/><path fill="#004f3b" d="M 322.714844 384.554688 C 322.539062 384.554688 322.394531 384.410156 322.394531 384.234375 L 322.394531 378.738281 C 322.394531 378.5625 322.539062 378.417969 322.714844 378.417969 C 322.890625 378.417969 323.035156 378.5625 323.035156 378.738281 L 323.035156 384.234375 C 323.035156 384.410156 322.890625 384.554688 322.714844 384.554688 " fill-opacity="1" fill-rule="nonzero"/><path fill="#ffffff" d="M 333.3125 420.703125 L 293.652344 420.703125 C 292.382812 420.703125 291.355469 419.671875 291.355469 418.402344 L 291.355469 414.324219 C 291.355469 413.054688 292.382812 412.023438 293.652344 412.023438 L 333.3125 412.023438 C 334.582031 412.023438 335.613281 413.054688 335.613281 414.324219 L 335.613281 418.402344 C 335.613281 419.671875 334.582031 420.703125 333.3125 420.703125 " fill-opacity="1" fill-rule="nonzero"/><g clip-path="url(#0d2221f0a1)"><path fill="#004f3b" d="M 293.652344 412.34375 C 292.5625 412.34375 291.675781 413.230469 291.675781 414.324219 L 291.675781 418.402344 C 291.675781 419.492188 292.5625 420.382812 293.652344 420.382812 L 333.3125 420.382812 C 334.402344 420.382812 335.292969 419.492188 335.292969 418.402344 L 335.292969 414.324219 C 335.292969 413.230469 334.402344 412.34375 333.3125 412.34375 Z M 333.3125 421.023438 L 293.652344 421.023438 C 292.210938 421.023438 291.035156 419.847656 291.035156 418.402344 L 291.035156 414.324219 C 291.035156 412.878906 292.210938 411.703125 293.652344 411.703125 L 333.3125 411.703125 C 334.757812 411.703125 335.929688 412.878906 335.929688 414.324219 L 335.929688 418.402344 C 335.929688 419.847656 334.757812 421.023438 333.3125 421.023438 " fill-opacity="1" fill-rule="nonzero"/></g><path fill="#004f3b" d="M 330.886719 419.574219 C 330.710938 419.574219 330.566406 419.433594 330.566406 419.253906 L 330.566406 413.761719 C 330.566406 413.582031 330.710938 413.4375 330.886719 413.4375 C 331.0625 413.4375 331.207031 413.582031 331.207031 413.761719 L 331.207031 419.253906 C 331.207031 419.433594 331.0625 419.574219 330.886719 419.574219 " fill-opacity="1" fill-rule="nonzero"/><path fill="#004f3b" d="M 327.925781 419.574219 C 327.75 419.574219 327.605469 419.433594 327.605469 419.253906 L 327.605469 413.761719 C 327.605469 413.582031 327.75 413.4375 327.925781 413.4375 C 328.105469 413.4375 328.25 413.582031 328.25 413.761719 L 328.25 419.253906 C 328.25 419.433594 328.105469 419.574219 327.925781 419.574219 " fill-opacity="1" fill-rule="nonzero"/><path fill="#004f3b" d="M 322.007812 419.574219 C 321.832031 419.574219 321.6875 419.433594 321.6875 419.253906 L 321.6875 413.761719 C 321.6875 413.582031 321.832031 413.4375 322.007812 413.4375 C 322.183594 413.4375 322.328125 413.582031 322.328125 413.761719 L 322.328125 419.253906 C 322.328125 419.433594 322.183594 419.574219 322.007812 419.574219 " fill-opacity="1" fill-rule="nonzero"/><path fill="#004f3b" d="M 313.128906 419.574219 C 312.953125 419.574219 312.808594 419.433594 312.808594 419.253906 L 312.808594 413.761719 C 312.808594 413.582031 312.953125 413.4375 313.128906 413.4375 C 313.308594 413.4375 313.449219 413.582031 313.449219 413.761719 L 313.449219 419.253906 C 313.449219 419.433594 313.308594 419.574219 313.128906 419.574219 " fill-opacity="1" fill-rule="nonzero"/><path fill="#004f3b" d="M 310.167969 419.574219 C 309.992188 419.574219 309.851562 419.433594 309.851562 419.253906 L 309.851562 413.761719 C 309.851562 413.582031 309.992188 413.4375 310.167969 413.4375 C 310.347656 413.4375 310.488281 413.582031 310.488281 413.761719 L 310.488281 419.253906 C 310.488281 419.433594 310.347656 419.574219 310.167969 419.574219 " fill-opacity="1" fill-rule="nonzero"/><path fill="#ffffff" d="M 299.21875 403.273438 L 338.878906 403.273438 C 340.148438 403.273438 341.175781 404.300781 341.175781 405.570312 L 341.175781 409.652344 C 341.175781 410.921875 340.148438 411.949219 338.878906 411.949219 L 299.21875 411.949219 C 297.949219 411.949219 296.917969 410.921875 296.917969 409.652344 L 296.917969 405.570312 C 296.917969 404.300781 297.949219 403.273438 299.21875 403.273438 " fill-opacity="1" fill-rule="nonzero"/><path fill="#004f3b" d="M 299.21875 403.589844 C 298.128906 403.589844 297.238281 404.480469 297.238281 405.570312 L 297.238281 409.652344 C 297.238281 410.742188 298.128906 411.628906 299.21875 411.628906 L 338.878906 411.628906 C 339.96875 411.628906 340.855469 410.742188 340.855469 409.652344 L 340.855469 405.570312 C 340.855469 404.480469 339.96875 403.589844 338.878906 403.589844 Z M 338.878906 412.269531 L 299.21875 412.269531 C 297.773438 412.269531 296.601562 411.09375 296.601562 409.652344 L 296.601562 405.570312 C 296.601562 404.125 297.773438 402.949219 299.21875 402.949219 L 338.878906 402.949219 C 340.320312 402.949219 341.496094 404.125 341.496094 405.570312 L 341.496094 409.652344 C 341.496094 411.09375 340.320312 412.269531 338.878906 412.269531 " fill-opacity="1" fill-rule="nonzero"/><path fill="#004f3b" d="M 301.644531 410.535156 C 301.46875 410.535156 301.324219 410.390625 301.324219 410.214844 L 301.324219 404.71875 C 301.324219 404.542969 301.46875 404.398438 301.644531 404.398438 C 301.820312 404.398438 301.964844 404.542969 301.964844 404.71875 L 301.964844 410.214844 C 301.964844 410.390625 301.820312 410.535156 301.644531 410.535156 " fill-opacity="1" fill-rule="nonzero"/><path fill="#004f3b" d="M 304.605469 410.535156 C 304.425781 410.535156 304.285156 410.390625 304.285156 410.214844 L 304.285156 404.71875 C 304.285156 404.542969 304.425781 404.398438 304.605469 404.398438 C 304.78125 404.398438 304.925781 404.542969 304.925781 404.71875 L 304.925781 410.214844 C 304.925781 410.390625 304.78125 410.535156 304.605469 410.535156 " fill-opacity="1" fill-rule="nonzero"/><path fill="#004f3b" d="M 310.523438 410.535156 C 310.347656 410.535156 310.203125 410.390625 310.203125 410.214844 L 310.203125 404.71875 C 310.203125 404.542969 310.347656 404.398438 310.523438 404.398438 C 310.699219 404.398438 310.84375 404.542969 310.84375 404.71875 L 310.84375 410.214844 C 310.84375 410.390625 310.699219 410.535156 310.523438 410.535156 " fill-opacity="1" fill-rule="nonzero"/><path fill="#004f3b" d="M 319.402344 410.535156 C 319.226562 410.535156 319.082031 410.390625 319.082031 410.214844 L 319.082031 404.71875 C 319.082031 404.542969 319.226562 404.398438 319.402344 404.398438 C 319.578125 404.398438 319.722656 404.542969 319.722656 404.71875 L 319.722656 410.214844 C 319.722656 410.390625 319.578125 410.535156 319.402344 410.535156 " fill-opacity="1" fill-rule="nonzero"/><path fill="#004f3b" d="M 322.363281 410.535156 C 322.183594 410.535156 322.042969 410.390625 322.042969 410.214844 L 322.042969 404.71875 C 322.042969 404.542969 322.183594 404.398438 322.363281 404.398438 C 322.539062 404.398438 322.679688 404.542969 322.679688 404.71875 L 322.679688 410.214844 C 322.679688 410.390625 322.539062 410.535156 322.363281 410.535156 " fill-opacity="1" fill-rule="nonzero"/><path fill="#ffffff" d="M 334.402344 403.195312 L 294.742188 403.195312 C 293.472656 403.195312 292.445312 402.167969 292.445312 400.898438 L 292.445312 396.816406 C 292.445312 395.546875 293.472656 394.519531 294.742188 394.519531 L 334.402344 394.519531 C 335.671875 394.519531 336.699219 395.546875 336.699219 396.816406 L 336.699219 400.898438 C 336.699219 402.167969 335.671875 403.195312 334.402344 403.195312 " fill-opacity="1" fill-rule="nonzero"/><path fill="#004f3b" d="M 294.742188 394.839844 C 293.652344 394.839844 292.765625 395.726562 292.765625 396.816406 L 292.765625 400.898438 C 292.765625 401.988281 293.652344 402.875 294.742188 402.875 L 334.402344 402.875 C 335.496094 402.875 336.378906 401.988281 336.378906 400.898438 L 336.378906 396.816406 C 336.378906 395.726562 335.496094 394.839844 334.402344 394.839844 Z M 334.402344 403.515625 L 294.742188 403.515625 C 293.296875 403.515625 292.125 402.34375 292.125 400.898438 L 292.125 396.816406 C 292.125 395.371094 293.296875 394.199219 294.742188 394.199219 L 334.402344 394.199219 C 335.847656 394.199219 337.023438 395.371094 337.023438 396.816406 L 337.023438 400.898438 C 337.023438 402.34375 335.847656 403.515625 334.402344 403.515625 " fill-opacity="1" fill-rule="nonzero"/><path fill="#004f3b" d="M 331.976562 402.070312 C 331.800781 402.070312 331.65625 401.925781 331.65625 401.75 L 331.65625 396.253906 C 331.65625 396.078125 331.800781 395.933594 331.976562 395.933594 C 332.152344 395.933594 332.296875 396.078125 332.296875 396.253906 L 332.296875 401.75 C 332.296875 401.925781 332.152344 402.070312 331.976562 402.070312 " fill-opacity="1" fill-rule="nonzero"/><path fill="#004f3b" d="M 329.015625 402.070312 C 328.839844 402.070312 328.699219 401.925781 328.699219 401.75 L 328.699219 396.253906 C 328.699219 396.078125 328.839844 395.933594 329.015625 395.933594 C 329.195312 395.933594 329.335938 396.078125 329.335938 396.253906 L 329.335938 401.75 C 329.335938 401.925781 329.195312 402.070312 329.015625 402.070312 " fill-opacity="1" fill-rule="nonzero"/><path fill="#004f3b" d="M 323.097656 402.070312 C 322.921875 402.070312 322.777344 401.925781 322.777344 401.75 L 322.777344 396.253906 C 322.777344 396.078125 322.921875 395.933594 323.097656 395.933594 C 323.273438 395.933594 323.417969 396.078125 323.417969 396.253906 L 323.417969 401.75 C 323.417969 401.925781 323.273438 402.070312 323.097656 402.070312 " fill-opacity="1" fill-rule="nonzero"/><path fill="#004f3b" d="M 314.21875 402.070312 C 314.042969 402.070312 313.898438 401.925781 313.898438 401.75 L 313.898438 396.253906 C 313.898438 396.078125 314.042969 395.933594 314.21875 395.933594 C 314.394531 395.933594 314.539062 396.078125 314.539062 396.253906 L 314.539062 401.75 C 314.539062 401.925781 314.394531 402.070312 314.21875 402.070312 " fill-opacity="1" fill-rule="nonzero"/><path fill="#004f3b" d="M 311.257812 402.070312 C 311.082031 402.070312 310.9375 401.925781 310.9375 401.75 L 310.9375 396.253906 C 310.9375 396.078125 311.082031 395.933594 311.257812 395.933594 C 311.4375 395.933594 311.578125 396.078125 311.578125 396.253906 L 311.578125 401.75 C 311.578125 401.925781 311.4375 402.070312 311.257812 402.070312 " fill-opacity="1" fill-rule="nonzero"/><path fill="#ffffff" d="M 297.792969 386.027344 L 337.453125 386.027344 C 338.722656 386.027344 339.75 387.054688 339.75 388.324219 L 339.75 392.40625 C 339.75 393.675781 338.722656 394.703125 337.453125 394.703125 L 297.792969 394.703125 C 296.523438 394.703125 295.492188 393.675781 295.492188 392.40625 L 295.492188 388.324219 C 295.492188 387.054688 296.523438 386.027344 297.792969 386.027344 " fill-opacity="1" fill-rule="nonzero"/><path fill="#004f3b" d="M 297.792969 386.347656 C 296.699219 386.347656 295.8125 387.234375 295.8125 388.324219 L 295.8125 392.40625 C 295.8125 393.496094 296.699219 394.386719 297.792969 394.386719 L 337.453125 394.386719 C 338.542969 394.386719 339.429688 393.496094 339.429688 392.40625 L 339.429688 388.324219 C 339.429688 387.234375 338.542969 386.347656 337.453125 386.347656 Z M 337.453125 395.023438 L 297.792969 395.023438 C 296.347656 395.023438 295.171875 393.851562 295.171875 392.40625 L 295.171875 388.324219 C 295.171875 386.882812 296.347656 385.707031 297.792969 385.707031 L 337.453125 385.707031 C 338.894531 385.707031 340.070312 386.882812 340.070312 388.324219 L 340.070312 392.40625 C 340.070312 393.851562 338.894531 395.023438 337.453125 395.023438 " fill-opacity="1" fill-rule="nonzero"/><path fill="#004f3b" d="M 300.21875 393.289062 C 300.042969 393.289062 299.898438 393.144531 299.898438 392.96875 L 299.898438 387.472656 C 299.898438 387.296875 300.042969 387.152344 300.21875 387.152344 C 300.394531 387.152344 300.539062 387.296875 300.539062 387.472656 L 300.539062 392.96875 C 300.539062 393.144531 300.394531 393.289062 300.21875 393.289062 " fill-opacity="1" fill-rule="nonzero"/><path fill="#004f3b" d="M 303.175781 393.289062 C 303 393.289062 302.855469 393.144531 302.855469 392.96875 L 302.855469 387.472656 C 302.855469 387.296875 303 387.152344 303.175781 387.152344 C 303.355469 387.152344 303.496094 387.296875 303.496094 387.472656 L 303.496094 392.96875 C 303.496094 393.144531 303.355469 393.289062 303.175781 393.289062 " fill-opacity="1" fill-rule="nonzero"/><path fill="#004f3b" d="M 309.097656 393.289062 C 308.917969 393.289062 308.777344 393.144531 308.777344 392.96875 L 308.777344 387.472656 C 308.777344 387.296875 308.917969 387.152344 309.097656 387.152344 C 309.273438 387.152344 309.417969 387.296875 309.417969 387.472656 L 309.417969 392.96875 C 309.417969 393.144531 309.273438 393.289062 309.097656 393.289062 " fill-opacity="1" fill-rule="nonzero"/><path fill="#004f3b" d="M 317.976562 393.289062 C 317.796875 393.289062 317.65625 393.144531 317.65625 392.96875 L 317.65625 387.472656 C 317.65625 387.296875 317.796875 387.152344 317.976562 387.152344 C 318.152344 387.152344 318.296875 387.296875 318.296875 387.472656 L 318.296875 392.96875 C 318.296875 393.144531 318.152344 393.289062 317.976562 393.289062 " fill-opacity="1" fill-rule="nonzero"/><path fill="#004f3b" d="M 320.933594 393.289062 C 320.757812 393.289062 320.613281 393.144531 320.613281 392.96875 L 320.613281 387.472656 C 320.613281 387.296875 320.757812 387.152344 320.933594 387.152344 C 321.113281 387.152344 321.253906 387.296875 321.253906 387.472656 L 321.253906 392.96875 C 321.253906 393.144531 321.113281 393.289062 320.933594 393.289062 " fill-opacity="1" fill-rule="nonzero"/><path fill="#004f3b" d="M 262.71875 373.195312 L 262.71875 368.578125 C 262.71875 367.332031 263.734375 366.320312 264.980469 366.320312 L 283.058594 366.320312 C 284.304688 366.320312 285.316406 367.332031 285.316406 368.578125 L 285.316406 373.195312 L 288.105469 373.195312 L 288.105469 368.578125 C 288.105469 365.796875 285.839844 363.53125 283.058594 363.53125 L 264.980469 363.53125 C 262.195312 363.53125 259.929688 365.796875 259.929688 368.578125 L 259.929688 373.195312 L 262.71875 373.195312 " fill-opacity="1" fill-rule="nonzero"/><path fill="#ffffff" d="M 263.453125 375.265625 L 259.410156 375.265625 C 258.171875 375.265625 257.160156 374.253906 257.160156 373.015625 L 257.160156 372.03125 C 257.160156 370.792969 258.171875 369.78125 259.410156 369.78125 L 263.453125 369.78125 C 264.691406 369.78125 265.703125 370.792969 265.703125 372.03125 L 265.703125 373.015625 C 265.703125 374.253906 264.691406 375.265625 263.453125 375.265625 " fill-opacity="1" fill-rule="nonzero"/><path fill="#004f3b" d="M 259.410156 370.101562 C 258.347656 370.101562 257.480469 370.964844 257.480469 372.03125 L 257.480469 373.015625 C 257.480469 374.078125 258.347656 374.945312 259.410156 374.945312 L 263.457031 374.945312 C 264.519531 374.945312 265.382812 374.078125 265.382812 373.015625 L 265.382812 372.03125 C 265.382812 370.964844 264.519531 370.101562 263.457031 370.101562 Z M 263.457031 375.585938 L 259.410156 375.585938 C 257.992188 375.585938 256.839844 374.433594 256.839844 373.015625 L 256.839844 372.03125 C 256.839844 370.613281 257.992188 369.457031 259.410156 369.457031 L 263.457031 369.457031 C 264.871094 369.457031 266.023438 370.613281 266.023438 372.03125 L 266.023438 373.015625 C 266.023438 374.433594 264.871094 375.585938 263.457031 375.585938 " fill-opacity="1" fill-rule="nonzero"/><path fill="#ffffff" d="M 288.613281 375.265625 L 284.570312 375.265625 C 283.332031 375.265625 282.320312 374.253906 282.320312 373.015625 L 282.320312 372.03125 C 282.320312 370.792969 283.332031 369.78125 284.570312 369.78125 L 288.613281 369.78125 C 289.851562 369.78125 290.863281 370.792969 290.863281 372.03125 L 290.863281 373.015625 C 290.863281 374.253906 289.851562 375.265625 288.613281 375.265625 " fill-opacity="1" fill-rule="nonzero"/><path fill="#004f3b" d="M 284.570312 370.101562 C 283.503906 370.101562 282.640625 370.964844 282.640625 372.03125 L 282.640625 373.015625 C 282.640625 374.078125 283.503906 374.945312 284.570312 374.945312 L 288.613281 374.945312 C 289.675781 374.945312 290.542969 374.078125 290.542969 373.015625 L 290.542969 372.03125 C 290.542969 370.964844 289.675781 370.101562 288.613281 370.101562 Z M 288.613281 375.585938 L 284.570312 375.585938 C 283.152344 375.585938 282 374.433594 282 373.015625 L 282 372.03125 C 282 370.613281 283.152344 369.457031 284.570312 369.457031 L 288.613281 369.457031 C 290.03125 369.457031 291.183594 370.613281 291.183594 372.03125 L 291.183594 373.015625 C 291.183594 374.433594 290.03125 375.585938 288.613281 375.585938 " fill-opacity="1" fill-rule="nonzero"/><path fill="#ffffff" d="M 314.273438 420.703125 L 244.46875 420.703125 L 248.914062 372.011719 L 307.566406 372.011719 L 314.273438 420.703125 " fill-opacity="1" fill-rule="nonzero"/><g clip-path="url(#0d726b4707)"><path fill="#004f3b" d="M 244.820312 420.382812 L 313.90625 420.382812 L 307.285156 372.328125 L 249.207031 372.328125 Z M 314.273438 421.023438 L 244.46875 421.023438 C 244.378906 421.023438 244.292969 420.984375 244.234375 420.917969 C 244.171875 420.851562 244.140625 420.761719 244.152344 420.671875 L 248.597656 371.980469 C 248.613281 371.816406 248.75 371.691406 248.914062 371.691406 L 307.566406 371.691406 C 307.722656 371.691406 307.859375 371.808594 307.882812 371.964844 L 314.59375 420.660156 C 314.605469 420.75 314.578125 420.84375 314.515625 420.914062 C 314.457031 420.980469 314.367188 421.023438 314.273438 421.023438 " fill-opacity="1" fill-rule="nonzero"/></g><g clip-path="url(#16f5d21eeb)"><path fill="#004f3b" d="M 310.1875 421.023438 C 310.027344 421.023438 309.890625 420.902344 309.867188 420.742188 L 306.457031 393.894531 C 306.4375 393.71875 306.558594 393.558594 306.734375 393.535156 C 306.914062 393.519531 307.070312 393.636719 307.09375 393.8125 L 310.503906 420.660156 C 310.527344 420.835938 310.402344 420.996094 310.226562 421.019531 C 310.210938 421.019531 310.199219 421.023438 310.1875 421.023438 " fill-opacity="1" fill-rule="nonzero"/></g><path fill="#ffffff" d="M 305.699219 420.703125 L 235.894531 420.703125 L 241.441406 372.011719 L 301.253906 372.011719 L 305.699219 420.703125 " fill-opacity="1" fill-rule="nonzero"/><g clip-path="url(#c71d06b1cd)"><path fill="#004f3b" d="M 236.253906 420.382812 L 305.347656 420.382812 L 300.960938 372.328125 L 241.726562 372.328125 Z M 305.699219 421.023438 L 235.894531 421.023438 C 235.800781 421.023438 235.714844 420.984375 235.65625 420.914062 C 235.59375 420.847656 235.566406 420.757812 235.574219 420.664062 L 241.121094 371.972656 C 241.140625 371.8125 241.277344 371.691406 241.441406 371.691406 L 301.253906 371.691406 C 301.417969 371.691406 301.558594 371.816406 301.574219 371.980469 L 306.019531 420.671875 C 306.027344 420.761719 305.996094 420.851562 305.9375 420.917969 C 305.875 420.984375 305.789062 421.023438 305.699219 421.023438 " fill-opacity="1" fill-rule="nonzero"/></g><path fill="#004f3b" d="M 299.964844 395.15625 L 239.355469 395.15625 C 239.179688 395.15625 239.035156 395.011719 239.035156 394.835938 C 239.035156 394.65625 239.179688 394.515625 239.355469 394.515625 L 299.621094 394.515625 L 298.875 384.160156 C 298.863281 383.984375 298.996094 383.832031 299.171875 383.820312 C 299.351562 383.804688 299.503906 383.9375 299.515625 384.113281 L 300.285156 394.8125 C 300.289062 394.902344 300.257812 394.988281 300.199219 395.054688 C 300.136719 395.117188 300.050781 395.15625 299.964844 395.15625 " fill-opacity="1" fill-rule="nonzero"/><path fill="#ffffff" d="M 276.550781 399.042969 L 265.339844 399.042969 L 265.339844 393.851562 L 276.550781 393.851562 L 276.550781 399.042969 " fill-opacity="1" fill-rule="nonzero"/><path fill="#004f3b" d="M 265.660156 398.71875 L 276.230469 398.71875 L 276.230469 394.171875 L 265.660156 394.171875 Z M 276.550781 399.363281 L 265.339844 399.363281 C 265.164062 399.363281 265.019531 399.21875 265.019531 399.042969 L 265.019531 393.851562 C 265.019531 393.675781 265.164062 393.53125 265.339844 393.53125 L 276.550781 393.53125 C 276.730469 393.53125 276.871094 393.675781 276.871094 393.851562 L 276.871094 399.042969 C 276.871094 399.21875 276.730469 399.363281 276.550781 399.363281 " fill-opacity="1" fill-rule="nonzero"/></svg>